<svg width="32" height="32" viewBox="0 0 32 32" fill="none" xmlns="http://www.w3.org/2000/svg">
<g id="&#229;&#164;&#180;&#229;&#131;&#143;">
<path d="M0 16C0 7.16344 7.16344 0 16 0V0C24.8366 0 32 7.16344 32 16V16C32 24.8366 24.8366 32 16 32V32C7.16344 32 0 24.8366 0 16V16Z" fill="#E82648"/>
<path id="Z" d="M21.4285 18.448C21.1985 18.6924 20.9805 18.9296 20.7744 19.1596C20.6546 19.2985 20.554 19.4159 20.4725 19.5118C20.3911 19.6028 20.3096 19.6986 20.2282 19.7993C20.1467 19.8951 20.0676 19.9909 19.991 20.0868C19.9191 20.1778 19.8568 20.2617 19.8041 20.3383C19.6939 20.4869 19.6029 20.6378 19.531 20.7911C19.4591 20.9445 19.3992 21.0858 19.3513 21.2152C19.2986 21.3589 19.2579 21.5003 19.2291 21.6393H17.08L21.4285 18.448ZM15.7288 11.1527L10.8341 14.7464C10.8724 14.7033 10.9659 14.5979 11.1144 14.4302C11.263 14.2625 11.4307 14.0732 11.6175 13.8624C11.8044 13.6468 11.9913 13.4287 12.1782 13.2083C12.365 12.9831 12.5136 12.7914 12.6238 12.6333C12.7388 12.4608 12.837 12.2883 12.9185 12.1158C13.0047 11.9433 13.0718 11.7876 13.1197 11.6486C13.182 11.4857 13.2323 11.3276 13.2707 11.1743L13.2779 11.1527H15.7288ZM14.701 22.7821C14.9118 22.5856 15.0891 22.4083 15.2329 22.2502C15.3239 22.1544 15.3886 22.0777 15.4269 22.0202C15.47 21.9627 15.5036 21.9076 15.5275 21.8549C15.5515 21.8022 15.5611 21.7543 15.5563 21.7111C15.5563 21.6728 15.5347 21.6464 15.4916 21.6321H10.7119L11.0641 20.2161L17.8491 13.2083H13.6157L19.8472 8.62988C19.3729 9.05155 18.9704 9.43967 18.6397 9.79426C18.4385 10.0003 18.2875 10.168 18.1869 10.2974C18.0863 10.4268 18.0048 10.5489 17.9425 10.6639C17.8802 10.7789 17.8443 10.882 17.8347 10.973C17.8299 11.0593 17.8707 11.1192 17.9569 11.1527H21.7663L21.4285 12.5327L14.6722 19.5764H19.0782L14.701 22.7821Z" fill="white"/>
</g>
</svg>
