<svg width="40" height="40" viewBox="0 0 40 40" xmlns="http://www.w3.org/2000/svg">
<g id="icon/&#231;&#174;&#173;&#229;&#164;&#180;">
<g id="Frame">
<path id="Vector" d="M13.4965 20.4572L17.9585 25.6442C18.1756 25.8966 18.5277 25.8966 18.7448 25.6442C18.962 25.3917 18.962 24.9824 18.7448 24.73L15.2121 20.6233L26.131 20.6233C26.427 20.6233 26.667 20.3443 26.667 20.0002C26.667 19.656 26.427 19.3771 26.131 19.3771L15.2121 19.3771L18.7448 15.2703C18.962 15.0179 18.962 14.6086 18.7448 14.3561C18.6363 14.2299 18.4939 14.1668 18.3516 14.1668C18.2093 14.1668 18.067 14.2299 17.9585 14.3561L13.4965 19.5431C13.4449 19.6031 13.4039 19.6744 13.376 19.7528C13.348 19.8312 13.3337 19.9153 13.3337 20.0002C13.3337 20.0851 13.348 20.1691 13.376 20.2475C13.4039 20.326 13.4449 20.3972 13.4965 20.4572Z"/>
</g>
</g>
</svg>
