<svg width="40" height="40" viewBox="0 0 40 40" xmlns="http://www.w3.org/2000/svg">
<g id="icon/&#231;&#174;&#173;&#229;&#164;&#180;">
<g id="&#231;&#174;&#173;&#229;&#164;&#180;">
<path id="Vector" d="M26.5035 19.5428L22.0415 14.3558C21.8244 14.1034 21.4723 14.1034 21.2552 14.3558C21.038 14.6083 21.038 15.0176 21.2552 15.27L24.7879 19.3767H13.869C13.573 19.3767 13.333 19.6557 13.333 19.9998C13.333 20.344 13.573 20.6229 13.869 20.6229H24.7879L21.2552 24.7297C21.038 24.9821 21.038 25.3914 21.2552 25.6439C21.3637 25.7701 21.5061 25.8332 21.6484 25.8332C21.7907 25.8332 21.933 25.7701 22.0415 25.6439L26.5035 20.4569C26.5551 20.3969 26.5961 20.3256 26.624 20.2472C26.652 20.1688 26.6663 20.0847 26.6663 19.9998C26.6663 19.9149 26.652 19.8309 26.624 19.7525C26.5961 19.674 26.5551 19.6028 26.5035 19.5428Z"/>
</g>
</g>
</svg>
