<svg width="32" height="32" viewBox="0 0 32 32" fill="none" xmlns="http://www.w3.org/2000/svg">
<g id="icon/&#229;&#133;&#179;&#233;&#151;&#173;">
<path id="Vector" d="M17.7031 15.9999L26.6608 7.03886C27.1131 6.58637 27.1131 5.84079 26.6608 5.38831L26.6118 5.33936C26.1595 4.88688 25.4143 4.88688 24.962 5.33936L16.0043 14.3129L7.04698 5.33936C6.59468 4.88688 5.8494 4.88688 5.3971 5.33936L5.34817 5.38831C4.88394 5.84079 4.88394 6.58637 5.34817 7.03886L14.3058 16.0001L5.34817 24.9611C4.89617 25.4136 4.89617 26.1592 5.34817 26.6117L5.3971 26.6606C5.8494 27.1131 6.59468 27.1131 7.04698 26.6606L16.0043 17.6993L24.962 26.6603C25.4143 27.1128 26.1595 27.1128 26.6118 26.6603L26.6608 26.6114C27.1131 26.1589 27.1131 25.4133 26.6608 24.9608L17.7031 15.9999Z" fill="white"/>
</g>
</svg>
