<svg width="40" height="40" viewBox="0 0 40 40" xmlns="http://www.w3.org/2000/svg">
<g id="icon">
<g id="OpenSea, the largest NFT marketplace (1)">
<path id="Vector" d="M14.6131 7.0702C14.1517 7.07348 10.3718 7.18012 6.38102 10.1431C6.38102 10.1431 2.12329 17.7966 2.12329 27.2187C2.12329 27.2187 4.60642 31.4729 11.1413 31.6796C11.1413 31.6796 12.2354 30.3802 13.1219 29.2564C9.36835 28.1325 7.94801 25.7979 7.94801 25.7979C7.94801 25.7979 8.2446 26.0047 8.77517 26.3016C8.80483 26.3016 8.83284 26.3328 8.89051 26.3607C8.98113 26.4181 9.06846 26.4493 9.15744 26.5083C9.89562 26.9218 10.6338 27.2466 11.316 27.5107C12.5287 28.0144 13.977 28.4557 15.6643 28.7806C17.8822 29.194 20.4839 29.3417 23.3197 28.8118C24.7901 28.5393 26.2276 28.1136 27.6087 27.5419C28.8046 27.0922 29.9447 26.507 31.0063 25.7979C31.0063 25.7979 29.5299 28.19 25.6561 29.2843C26.5426 30.3769 27.6087 31.6451 27.6087 31.6451C34.1419 31.4384 36.6267 27.1826 36.6267 27.2154C36.6267 17.7884 32.369 10.1382 32.369 10.1382C28.1409 6.9816 24.0891 7.0702 24.0891 7.0702L23.6756 7.5427C28.7011 9.04879 31.0376 11.2669 31.0376 11.2669C28.28 9.77165 25.2592 8.81862 22.1399 8.45981C20.1532 8.23963 18.1471 8.25946 16.1652 8.51887C15.9889 8.51887 15.8406 8.55004 15.661 8.57629C14.6262 8.69442 12.1135 9.04879 8.94983 10.4384C7.85738 10.9109 7.20488 11.2669 7.20488 11.2669C7.20488 11.2669 9.63363 8.93231 14.9541 7.42621L14.6576 7.0702H14.6114H14.6131ZM13.8601 17.9721C15.544 17.9721 16.9067 19.4192 16.8754 21.2222C16.8754 23.0269 15.544 24.4739 13.8601 24.4739C12.2041 24.4739 10.8447 23.0253 10.8447 21.2222C10.8447 19.4192 12.1728 17.9721 13.8601 17.9721ZM24.6527 17.9721C26.307 17.9721 27.668 19.4192 27.668 21.2222C27.668 23.0269 26.335 24.4739 24.6527 24.4739C22.9951 24.4739 21.6373 23.0253 21.6373 21.2222C21.6373 19.4192 22.9654 17.9721 24.6527 17.9721Z" />
</g>
</g>
</svg>
