<svg id="Layer_1" data-name="Layer 1" xmlns="http://www.w3.org/2000/svg" viewBox="0 0 1223 504"><defs><style>.cls-1{fill:#0b0b0b;}.cls-2{fill:#424242;}.cls-3{fill:#191919;}.cls-4{fill:#292929;}</style></defs><path class="cls-1" d="M-.72.45H5.49c0,.19-.07.56-.09.75Q88.53,8.41,171.66,15.55c4.29.46,8.79.23,12.82,2,37.64,16.29,75.38,32.35,113,48.66l-1.89-.54c6.88,10.91,14.65,21.24,21.83,32,1.51,2.09,2.81,4.54,5.14,5.83,10.73,5.37,22.13,9.38,32.64,15.17-6.86.49-13.75.2-20.62.34,21.74,11.91,43.85,23.1,65.68,34.83,2.5,1.37,5.05,2.63,7.67,3.75-13.85-9.77-28.83-17.9-42.7-27.64,6.17-3.11,12.88-5.08,18.77-8.74-13.41-6.38-26.89-12.6-40.35-18.85-4.18-1.89-6.71-5.89-9.81-9.08-5.45-6.17-11.47-11.86-16.42-18.45,22.8,9.65,45.5,19.56,68.28,29.27-19.3-22.33-38.8-44.5-58-66.91,33,27.36,65.75,55.09,98.63,82.62,6.57,6.2,15,9.72,22.56,14.45,5.35,3.47,11.77,4.41,17.75,6.34Q500.2,150.3,533.75,160c3.26.73,5.12,3.72,7.34,5.92q25.36,26.79,50.76,53.54c-5.87-12.63-12.46-24.92-18.24-37.59,9.95,12.69,19.66,25.58,29.47,38.39,4.75-1.14,9.48-2.4,14.24-3.54,0-4.39-.07-8.78,0-13.16,1.86,1.51,3.78,3.41,6.29,3.66,3-.93,5.3-3.24,7.93-4.86.19,5.47-1.64,11.42,1.66,16.34-3.23,3.51-7.36,5.93-11,8.88a131.69,131.69,0,0,0-14.05.13,9.24,9.24,0,0,0,8.05,4.19c-1.86.9-3.69,2.57-5.89,2.09-4.71-.85-9.25-2.39-13.9-3.49-1.5,4,0,9.09,3.89,11.16,3,1.73,6.19,3,9.32,4.48,9.63-5,17-13.18,25.15-20.23l2,.16a28.88,28.88,0,0,1,2,5.42c-1.83,8.07-8.4,14-11,21.72,4.45-5.08,9.66-9.55,13.54-15.08,1.13-4.85,1.79-10.53-1-15,.91-4.79,5.68-7.18,9-10.26l-1-1.22c7.75-10.32,15.77-20.47,23.82-30.56-5.65,11.74-12.22,23-17.41,35,4-2.77,7.06-6.66,10.51-10.07,12.35-12.66,24.48-25.52,36.84-38.16,2.55-2.44,4.61-5.94,8.35-6.63,5.55-1.38,15.34-3.92,15.34-3.92l4.34-1.17s33.61-8.82,50.45-13.12c7.25-1.21,13.1-5.93,19.53-9.15A55.6,55.6,0,0,0,813.11,125q47.14-38.76,94.3-77.54c-4.54,6-9.88,11.31-14.75,17-13.72,15.76-27.84,31.17-41.39,47.06,21.74-8.48,43.24-17.58,65-26.17-6.64,7.9-14,15.18-20.92,22.81-3.36,3.8-8.48,5-12.87,7.16-10.2,4.77-20.75,8.78-30.75,14,5.78,3.26,11.84,6,17.63,9.22C856,147.28,842,155.06,828.59,163.76a11.55,11.55,0,0,1-5.57,1.86,4.33,4.33,0,0,0,1.33,1.33c24-13.35,49-24.78,73.22-37.73-6.34-1.12-12.77-1.17-19.18-1.38,7.7-4.14,16-7,24-10.54,3.73-1.79,8.27-2.7,10.82-6.25,8.16-11.45,16.16-23,24.42-34.41,28.22-11.54,56.51-22.9,84.73-34.44,7.88-2.87,15.42-6.7,23.41-9.21,48.91-2.67,97.88-4.48,146.81-7,8.66-.06,17.3-1.35,26-.72-11.83,1.51-23.49,4.08-35.22,6.18-38.36,6.84-76.59,14.51-115,21,5.6,1.87,11.53,2.19,17.32,3.15,8.71,1.38,17.42,2.8,26.17,4a28,28,0,0,1-3.29,2.09c-48.25,21.22-96.58,42.27-144.77,63.62,6.79-.24,13.59-.38,20.39-.51,14.13-1.09,28.32-.43,42.46-1.48,18.69-.22,37.35-1.42,56-1.5,15.31-1,30.68-.67,46-1.66,14-.06,27.94-.9,41.92-1.16,13.85-.1,27.68-1.29,41.54-1.13-62.69,17.78-125.3,35.87-188,53.77-3.13.85-6.21,2-9.46,2.2-21,1.26-42.06,2.7-63.08,4.11-14,.55-28-.06-42,.8-29,.06-58.08.6-87.11.52,2.31.7,4.64,1.41,7,2q149.09,31.68,298.13,63.49c11.68,2.36,23.26,5.31,35.08,7-8,1-16.07-.23-24.1-.53-11.38-.19-22.7-1.55-34.09-1.33,2-.29,4.08-.58,6.14-.85a119.81,119.81,0,0,1-15,.06c-47.29-2.82-94.63-4.81-141.93-7.41-6.25-.94-12.87.43-18.82-2.13-29.76-11.35-59.71-22.18-89.41-33.68,4.71,3.81,10.27,6.3,15.38,9.5,12,7.2,24.31,13.82,36.12,21.3-22.6-5.63-45-11.92-67.66-17.39,66.16,44.11,132.48,88,198.52,132.29-32-14.51-63.43-30.11-95.4-44.57-30.18-7.54-60.46-14.75-90.68-22.14a18.25,18.25,0,0,1-5.41-2.94c-15.15-10.56-30.45-20.93-45.63-31.45-3.2-2.15-6.22-4.95-10.2-5.44-19.68-3.8-39.31-7.82-59-11.71,26.83,20,54.31,39.21,81.23,59.11,8.74,8.62,17,17.74,25.41,26.66,4.85,5.14,10,10,14.36,15.62q-78-49.21-156.29-98.08C696.31,248,706.89,259,716.81,270.67c-13.1-6.62-26.07-13.49-39.17-20.11,1,3,3.17,5.72,3.66,8.86-6.65,18.43-13.8,36.72-21,54.93-2.09-4.43-3.94-9-6.3-13.28-7-2-14.13-3.56-20.84-6.43,6.43-2.85,12.82-5.78,19.28-8.57q0-2.38-.06-4.77c-2,.54-4.08,1.09-6.08,1.71-.23-1.75-.46-3.49-.61-5.24,5.2-6.1,11.28-11.38,17.23-16.72a127.75,127.75,0,0,0-10.64-17.44c-3.89,9.55-8.41,18.83-12.62,28.25-4.25,3.34-8.78,6.29-13,9.67-5,4.17-10.84,7.36-15.13,12.37-2.91,1.21-5.89,2.18-8.85,3.25-.69-6.27,1.06-12.56-.17-18.79-.89-5.77-1.67-11.57-2.46-17.35-2.92,4.68-3.55,10.25-5.35,15.37-1.46,4.25-2.49,9-6.24,11.95-7.9,8.11-16.23,15.79-24.78,23.23-4.89,4.34-9.21,9.31-14.44,13.28-1.31-8.87-1.44-17.95-4.25-26.55-2.87,1.3-5.74,2.59-8.59,3.93,0,1.69.42,3.42.06,5.1-1.88,2.8-4.35,5.14-6.37,7.84,1.67,3,3.46,6,3.91,9.46-2.13-.36-4.26-.75-6.38-1.15-1.87-3.35-3.67-6.74-5.45-10.13-1.28,2.28-2.54,4.57-3.8,6.87l-3,0c2.18-7.24,4.5-14.43,6.6-21.68,7.16-5.2,14.93-9.57,21.66-15.35,8.15-6.39,15.44-13.81,23.72-20,3-2.3,6.07-4.72,8.08-8,2.79-4.63,6.54-8.57,9.57-13-1.69.53-3.37,1.09-5,1.77-19.3,8.35-38.54,16.85-57.89,25.08,11.1-10.94,22.55-21.52,33.63-32.49-20.2,10.38-40.07,21.39-60.14,32-36.47,19.41-72.76,39.19-109.35,58.38,11.44-10.84,23.18-21.36,34.74-32.07,3.51-3.12,6.71-6.64,10.67-9.22q43.53-27.06,87.07-54.17c-20.15,2.36-40.17,5.74-60.27,8.42-3,.43-6.24.66-8.87,2.39-17.15,10.22-34.39,20.31-51.57,30.49-3.32,1.91-6.49,4.39-10.41,4.85-29.36,5.36-58.7,10.85-88.06,16.24a67.86,67.86,0,0,0-9.48,2.07c-33.89,13.08-67.51,26.9-101.5,39.69,71.94-41.15,144.06-82,215.92-123.29-24.18,4.53-48.22,9.84-72.42,14.27,18.59-9.58,37.55-18.42,56.07-28.11-30.05,8.83-59.92,18.27-89.91,27.33-4.47,1.23-8.82,3.3-13.55,3.24q-114,.64-228,1.41c-2.74,0-5.48-.19-8.22-.4,3.75-.41,7.51-.8,11.23-1.41,118-18.61,236.12-36.9,354.14-55.63q-66.61-3.42-133.21-7.05c-23.38-2.27-46.72-4.9-70.09-7.23-4.42-.34-8.59-1.87-12.76-3.21L14.5,97.83c-4.08-1.29-8.19-2.47-12.17-4,87.67,5.91,175.29,12.63,263,18.54q-78-36-155.88-72.06c15.87-1.76,31.78-3.1,47.64-4.95C107.69,24.47,58.28,13.86,8.91,3c-1.83-.37-3.68-.65-5.53-.9C2,1.56.66,1-.72.45Zm204.3,114.14c12.59,13,25.4,25.85,38,38.92a6.67,6.67,0,0,0,5.12,2.3c11.44,1.14,22.83,2.87,34.31,3.6-18.66-14.5-37.92-28.23-56.75-42.51-1.73-1.16-3.38-2.91-5.63-2.8C213.58,114.06,208.57,114.27,203.58,114.59ZM1003,130.8c-18,13-35.88,26.19-53.94,39.11A2.21,2.21,0,0,0,948,172c10.84-1.57,21.85-1.55,32.72-2.79,3.53-.25,5.35-3.77,7.81-5.85,10.82-11.22,22.08-22,32.91-33.23-4.9-.52-9.81-1.26-14.73-1.16C1005.19,128.94,1004.13,130.11,1003,130.8ZM444.32,155.71c8.49,3.54,17.1,6.82,25.65,10.21,2.53,1.1,5.56,1.63,7.3,4,4.34,5.29,8.28,10.93,12.8,16.06,1.77.5,3.66.19,5.49.16,13.59-.83,27.22-.92,40.8-1.92-16.15-4.73-32.69-8.1-49-12.39,3.38-1.85,7.18-2.78,10.47-4.82-16.08-3.61-32.21-7-48.29-10.66A30,30,0,0,0,444.32,155.71Zm334.34,7.56c-11.74,2.26-23.51,4.29-35.24,6.57,2.79,2.38,6.55,3.09,9.45,5.34q-21.61,4.71-43.25,9.24l-2.54,1c12.13,1.59,24.36,2.13,36.5,3.54,2.15,0,4.56.73,6.59-.11,3.31-3.31,6-7.22,8.91-10.83,2-2.33,3.49-5.46,6.56-6.56,9.61-3.62,19.25-7.17,29-10.51C789.15,160.57,784,162.58,778.66,163.27ZM271.13,198.64c6.69,7.16,14.84,12.73,22.38,18.93,1.48,1.48,3.57.69,5.34.31,6.27-1.66,12.59-3.15,18.8-5.06a140.9,140.9,0,0,0-14.82-15.59c-1.19-1-2.47-2.38-4.17-2C289.47,196.29,280.27,197.28,271.13,198.64Zm237.72-1.11c6.5,4.14,13.2,8,20,11.61,10.75-1.61,21.4-4.14,32.06-6.34-5.17-1.5-10.6-1.36-15.9-2C533,199.73,520.94,198.19,508.85,197.53Zm194.73,3.65c-7.26,1.11-14.74.08-21.87,2,10.45,2.06,20.68,5.1,31,7.8,6.34-3.86,13.18-6.91,19.28-11.17C722.49,199.88,713.06,201.07,703.58,201.18Zm222.48,6.66c-5.24,4.85-10.65,9.63-14.75,15.52,7.62,2.93,15.45,5.24,23.26,7.59,7.06-6.42,14.08-12.9,20.72-19.75-7.3-1.77-14.78-2.59-22.13-4.12C930.82,206.89,927.91,205.91,926.06,207.84ZM643.64,227.09c2.7,3.92,4.81,8.27,8,11.82C652.34,233.79,647.85,229.27,643.64,227.09Zm-301.32,29.3c7.06,6.45,14.81,12.13,22.26,18.12q10.5-1.72,20.93-3.89c-8.67-7.1-18.07-13.32-27.14-19.9C353,252.6,347.62,254.37,342.32,256.39Zm270.75-3c1.25,6.72,2.37,13.46,3.92,20.12,1.08-3.87,1.33-7.89,2.07-11.82.88-3.75,2.07-7.44,2.51-11.28A71.35,71.35,0,0,0,613.07,253.42Zm256.61,7.15c-7.06,4.9-14,10-21.1,14.82a14.86,14.86,0,0,0-3.19,2.94c6.87,1.77,13.82,3.26,20.7,5,1.77.35,3.79,1.19,5.45,0,8-4.73,16.24-9.05,24.18-13.9-6.3-2.85-12.94-4.89-19.17-7.89C874.39,260.8,871.82,258.74,869.68,260.57Z"/><path class="cls-1" d="M615.37,187.09a38.66,38.66,0,0,1,6.25-8.66c4.55.84,8.3,3.83,11.67,6.83-.25,3.37-.38,6.76-.77,10.13.18,5.18-5.2,7.7-9,9.86a39.94,39.94,0,0,1-8-3.95c-.91-1-1.79-2.1-2.66-3.14C614.3,194.62,614.06,190.66,615.37,187.09Zm3.82-2.35c1.08,1,2.18,2,3.28,3q1.26-2.26,2.49-4.56C623,183.69,621.1,184.2,619.19,184.74Z"/><path class="cls-1" d="M601.43,301.41c1.2.57,2.4,1.17,3.58,1.82-4.32,8.38-9.13,16.5-13.79,24.7-2.66,4.68-5,9.58-8.21,13.92-11.45,14.49-22.79,29.08-34.23,43.58-7.19-1.41-14.44-2.44-21.64-3.8,9.27-8.63,18.66-17.14,28-25.76,3.43-3.21,7.09-6.2,10.16-9.77,11.53-13.83,22.82-27.87,34.36-41.69A16.11,16.11,0,0,0,601.43,301.41Z"/><path class="cls-1" d="M632,306.37c10.39,4.5,20.39,9.85,30.8,14.31a26.85,26.85,0,0,0,2.69,6.17,67.57,67.57,0,0,0,7,15.77q6.51,14,12.83,28.17a21.46,21.46,0,0,0,3,5c5.68,6.37,10.85,13.18,16.5,19.58-7.53,2.52-14.18,7.45-22.13,8.64.61,4.6,1.27,9.21,1.88,13.82-2.67.12-5.33.21-8,.37-6.31.19-12,3.15-18.06,4.61A427.39,427.39,0,0,0,652,466.52c.16,4.13,1.76,8,2.77,12-2.09,2.76-4.9,5.24-5.6,8.79-.92,3.36-1.06,7-2.47,10.19-2.71,2.38-6,4-9,6l-4.09-1.48a143.15,143.15,0,0,0,5.92-34.63c-1.52-6-4.66-11.34-7.18-16.9-3.6-8.69-7.63-17.18-11-26-6-2-12-3.92-17.95-5.88C617.64,382.64,625.93,344.56,632,306.37Zm8,117.43c.62,4.73,2.34,9.23,3.31,13.89.08-5-.3-10-.43-15Z"/><path class="cls-2" d="M295.6,65.67l1.89.54c6.69,2.76,13.31,5.67,19.94,8.58,4.95,6.59,11,12.28,16.42,18.45,3.1,3.19,5.63,7.19,9.81,9.08,13.46,6.25,26.94,12.47,40.35,18.85-5.89,3.66-12.6,5.63-18.77,8.74,13.87,9.74,28.85,17.87,42.7,27.64-2.62-1.12-5.17-2.38-7.67-3.75-21.83-11.73-43.94-22.92-65.68-34.83,6.87-.14,13.76.15,20.62-.34-10.51-5.79-21.91-9.8-32.64-15.17-2.33-1.29-3.63-3.74-5.14-5.83C310.25,86.91,302.48,76.58,295.6,65.67Z"/><path class="cls-2" d="M916.22,85.34c7.11-2.92,14.22-5.88,21.38-8.7-8.26,11.38-16.26,23-24.42,34.41-2.55,3.55-7.09,4.46-10.82,6.25-8,3.59-16.27,6.4-24,10.54,6.41.21,12.84.26,19.18,1.38-24.21,12.95-49.24,24.38-73.22,37.73a4.33,4.33,0,0,1-1.33-1.33,11.55,11.55,0,0,0,5.57-1.86c13.4-8.7,27.37-16.48,40.72-25.25-5.79-3.25-11.85-6-17.63-9.22,10-5.2,20.55-9.21,30.75-14,4.39-2.17,9.51-3.36,12.87-7.16C902.24,100.52,909.58,93.24,916.22,85.34Z"/><path class="cls-2" d="M203.58,114.59c5-.32,10-.53,15-.49,2.25-.11,3.9,1.64,5.63,2.8,18.83,14.28,38.09,28,56.75,42.51-11.48-.73-22.87-2.46-34.31-3.6a6.67,6.67,0,0,1-5.12-2.3C229,140.44,216.17,127.62,203.58,114.59Z"/><path class="cls-2" d="M1003,130.8c1.16-.69,2.22-1.86,3.69-1.83,4.92-.1,9.83.64,14.73,1.16-10.83,11.21-22.09,22-32.91,33.23-2.46,2.08-4.28,5.6-7.81,5.85-10.87,1.24-21.88,1.22-32.72,2.79a2.21,2.21,0,0,1,1.08-2.09C967.09,157,985,143.85,1003,130.8Z"/><path class="cls-2" d="M444.32,155.71a30,30,0,0,1,5.25.61c16.08,3.65,32.21,7.05,48.29,10.66-3.29,2-7.09,3-10.47,4.82,16.28,4.29,32.82,7.66,49,12.39-13.58,1-27.21,1.09-40.8,1.92-1.83,0-3.72.34-5.49-.16-4.52-5.13-8.46-10.77-12.8-16.06-1.74-2.34-4.77-2.87-7.3-4C461.42,162.53,452.81,159.25,444.32,155.71Z"/><path class="cls-2" d="M778.66,163.27c5.33-.69,10.49-2.7,15.94-2.29-9.71,3.34-19.35,6.89-29,10.51-3.07,1.1-4.56,4.23-6.56,6.56-3,3.61-5.6,7.52-8.91,10.83-2,.84-4.44.08-6.59.11-12.14-1.41-24.37-2-36.5-3.54l2.54-1q21.63-4.51,43.25-9.24c-2.9-2.25-6.66-3-9.45-5.34C755.15,167.56,766.92,165.53,778.66,163.27Z"/><path class="cls-2" d="M619.75,168.35c1-.76,2-1.52,3-2.28,8,3.41,16,6.79,24.29,9.48-2.83,1.23-5.7,2.38-8.62,3.39,2.7,3.5,5.32,7,8,10.55-3-.53-5.9-1-8.87-1.3-1.26,7.64-2.38,15.31-3.81,22.92.3.6.92,1.79,1.22,2.39,1.68,3.28,3.57,6.45,5.38,9.66,2.77,4.46,2.11,10.14,1,15-3.88,5.53-9.09,10-13.54,15.08,2.57-7.76,9.14-13.65,11-21.72a28.88,28.88,0,0,0-2-5.42c-1.13-2.47-2.31-4.92-3.47-7.37-3.3-4.92-1.47-10.87-1.66-16.34-2.63,1.62-4.94,3.93-7.93,4.86-2.51-.25-4.43-2.15-6.29-3.66-.65-.75-1.27-1.53-1.88-2.28a39.94,39.94,0,0,0,8,3.95c3.84-2.16,9.22-4.68,9-9.86.39-3.37.52-6.76.77-10.13-3.37-3-7.12-6-11.67-6.83a38.66,38.66,0,0,0-6.25,8.66c-1.31,3.57-1.07,7.53-2.55,11.07a86.35,86.35,0,0,1-4.65,8.36c-.07-3.56-.15-7.11-.38-10.66a60.84,60.84,0,0,0-6.47,2.82c2.78-6.4,3.09-13.48,5-20.14.94-4,4.13-6.77,6.53-9.88Q616.29,168.48,619.75,168.35Z"/><path class="cls-2" d="M619.19,184.74c1.91-.54,3.83-1.05,5.77-1.51q-1.23,2.29-2.49,4.56C621.37,186.77,620.27,185.76,619.19,184.74Z"/><path class="cls-2" d="M271.13,198.64c9.14-1.36,18.34-2.35,27.53-3.4,1.7-.39,3,1,4.17,2a140.9,140.9,0,0,1,14.82,15.59c-6.21,1.91-12.53,3.4-18.8,5.06-1.77.38-3.86,1.17-5.34-.31C286,211.37,277.82,205.8,271.13,198.64Z"/><path class="cls-2" d="M508.85,197.53c12.09.66,24.12,2.2,36.19,3.24,5.3.67,10.73.53,15.9,2-10.66,2.2-21.31,4.73-32.06,6.34C522.05,205.57,515.35,201.67,508.85,197.53Z"/><path class="cls-2" d="M703.58,201.18c9.48-.11,18.91-1.3,28.39-1.35-6.1,4.26-12.94,7.31-19.28,11.17-10.3-2.7-20.53-5.74-31-7.8C688.84,201.26,696.32,202.29,703.58,201.18Z"/><path class="cls-2" d="M926.06,207.84c1.85-1.93,4.76-1,7.1-.76,7.35,1.53,14.83,2.35,22.13,4.12-6.64,6.85-13.66,13.33-20.72,19.75-7.81-2.35-15.64-4.66-23.26-7.59C915.41,217.47,920.82,212.69,926.06,207.84Z"/><path class="cls-2" d="M608.14,227.73a131.69,131.69,0,0,1,14.05-.13,40.91,40.91,0,0,1-6,4.32A9.24,9.24,0,0,1,608.14,227.73Z"/><path class="cls-2" d="M342.32,256.39c5.3-2,10.69-3.79,16.05-5.67,9.07,6.58,18.47,12.8,27.14,19.9q-10.41,2.17-20.93,3.89C357.13,268.52,349.38,262.84,342.32,256.39Z"/><path class="cls-2" d="M613.07,253.42a71.35,71.35,0,0,1,8.5-3c-.44,3.84-1.63,7.53-2.51,11.28-.74,3.93-1,7.95-2.07,11.82C615.44,266.88,614.32,260.14,613.07,253.42Z"/><path class="cls-2" d="M869.68,260.57c2.14-1.83,4.71.23,6.87,1,6.23,3,12.87,5,19.17,7.89-7.94,4.85-16.18,9.17-24.18,13.9-1.66,1.2-3.68.36-5.45,0-6.88-1.75-13.83-3.24-20.7-5a14.86,14.86,0,0,1,3.19-2.94C855.71,270.6,862.62,265.47,869.68,260.57Z"/><path class="cls-2" d="M646.28,283c2-.62,4-1.17,6.08-1.71q0,2.38.06,4.77c-6.46,2.79-12.85,5.72-19.28,8.57-5.13,2.23-10.27,4.44-15.27,7-1.2,6.06-.44,12.6-2.69,18.37-6.53,7.16-14.34,13.1-21,20.19-1.13,1.12-.7,2.83-.76,4.25.47,10.4,1.37,20.78,1.79,31.19-6.15,3.79-12.7,6.89-19,10.43-6.29,3.3-12.4,7-19,9.76,7.41-13.33,16.06-25.94,23.52-39.23,8.32-17.62,17.15-35,25-52.87l-.79-.46c-1.18-.65-2.38-1.25-3.58-1.82q-.66-1.64-1.32-3.24l2.57-1c3-1.07,5.94-2,8.85-3.25C623.13,290.33,634.78,286.92,646.28,283Z"/><path class="cls-2" d="M731.6,391.56c-.59-7.36-3.7-14.34-3.56-21.75,5.6,3.47,11.23,6.9,16.81,10.41,2.14,1.23,3.31,3.46,4.55,5.49,4.48,7.61,9.19,15.08,13.65,22.71-4.93,6.91-10,13.74-15,20.59-.78-9-5.72-16.79-9.12-25C736.7,399.79,735.69,394.53,731.6,391.56Z"/><path class="cls-3" d="M634.92,213.5c4.4-.86,8.79-2.35,13.34-1.82l1,1.22c-3.27,3.08-8,5.47-9,10.26C638.49,220,636.6,216.78,634.92,213.5Z"/><path class="cls-3" d="M633.24,218.72c1.16,2.45,2.34,4.9,3.47,7.37l-2-.16c-8.11,7-15.52,15.21-25.15,20.23-3.13-1.45-6.34-2.75-9.32-4.48-3.86-2.07-5.39-7.16-3.89-11.16,4.65,1.1,9.19,2.64,13.9,3.49,2.2.48,4-1.19,5.89-2.09a40.91,40.91,0,0,0,6-4.32C625.88,224.65,630,222.23,633.24,218.72Z"/><path class="cls-3" d="M639.64,271.86c1.87-1.42,3.79-2.8,5.7-4.19.12,3.36.13,6.73.33,10.1.15,1.75.38,3.49.61,5.24-11.5,3.91-23.15,7.32-34.75,10.89,4.29-5,10.12-8.2,15.13-12.37C630.86,278.15,635.39,275.2,639.64,271.86Z"/><path class="cls-3" d="M617.87,301.6c5-2.52,10.14-4.73,15.27-7,6.71,2.87,13.86,4.42,20.84,6.43,2.36,4.3,4.21,8.85,6.3,13.28a45.1,45.1,0,0,1,2.47,6.33c-10.41-4.46-20.41-9.81-30.8-14.31-6,38.19-14.31,76.27-28.51,112.33a186.49,186.49,0,0,1-7.69,17.57c-12.47-7.19-24.88-14.5-37.42-21.56-8-3.8-16.43-6.59-24.49-10.25,5-6.36,9.91-12.72,14.94-19,11.44-14.5,22.78-29.09,34.23-43.58,3.23-4.34,5.55-9.24,8.21-13.92,4.66-8.2,9.47-16.32,13.79-24.7l.79.46c-7.83,17.84-16.66,35.25-25,52.87-7.46,13.29-16.11,25.9-23.52,39.23,6.55-2.78,12.66-6.46,19-9.76,6.3-3.54,12.85-6.64,19-10.43-.42-10.41-1.32-20.79-1.79-31.19.06-1.42-.37-3.13.76-4.25,6.62-7.09,14.43-13,21-20.19C617.43,314.2,616.67,307.66,617.87,301.6Z"/><path class="cls-4" d="M643.64,227.09c4.21,2.18,8.7,6.7,8,11.82C648.45,235.36,646.34,231,643.64,227.09Z"/><path class="cls-4" d="M665.44,326.85c11.54,8.32,22.74,17.11,34.34,25.36,9.35,6,18.88,11.66,28.26,17.6-.14,7.41,3,14.39,3.56,21.75-7.31-5.78-14.6-11.58-21.93-17.32-13-9.83-25-20.83-37.19-31.62A67.57,67.57,0,0,1,665.44,326.85Z"/></svg>