<svg width="24" height="24" viewBox="0 0 24 24" fill="none" xmlns="http://www.w3.org/2000/svg">
<g id="icon/&#230;&#149;&#133;&#228;&#186;&#139;" clip-path="url(#clip0_582_792)">
<path id="Vector" d="M15.4609 12.2247C15.8354 12.1199 16.1949 12.015 16.5395 11.9101C16.8391 11.8202 17.1463 11.7303 17.4609 11.6404C17.7755 11.5506 18.0376 11.4682 18.2474 11.3933L17.9328 12.5843C17.8429 12.9139 17.7605 13.161 17.6856 13.3258C17.5358 13.7303 17.3597 14.1049 17.1575 14.4494C16.9552 14.794 16.7642 15.0936 16.5845 15.3483C16.3747 15.6479 16.1575 15.9251 15.9328 16.1798L13.1687 17.0112L15.4384 17.4157C15.1388 17.6704 14.8167 17.9326 14.4721 18.2022C14.1725 18.427 13.8316 18.6629 13.4496 18.9101C13.0676 19.1573 12.6669 19.3858 12.2474 19.5955C11.8279 19.8052 11.3597 19.9139 10.8429 19.9213C10.326 19.9288 9.83539 19.8951 9.37097 19.8202C8.83165 19.7453 8.29232 19.618 7.753 19.4382C7.91779 19.1835 8.09757 18.8989 8.29232 18.5843C8.45712 18.3146 8.65562 17.9963 8.88783 17.6292C9.12004 17.2622 9.36348 16.8539 9.61816 16.4045C10.3373 15.191 11.0339 14 11.7081 12.8315C12.3822 11.6629 12.989 10.6067 13.5283 9.66292C14.1425 8.56929 14.7343 7.53558 15.3036 6.5618C14.5994 7.37079 13.8579 8.27715 13.0788 9.2809C12.4047 10.1348 11.6556 11.1498 10.8316 12.3258C10.0077 13.5019 9.16873 14.7865 8.31479 16.1798C8.13502 16.4644 7.93277 16.794 7.70805 17.1685C7.48333 17.5431 7.24738 17.9401 7.00019 18.3596C6.753 18.779 6.49831 19.2097 6.23614 19.6517C5.97397 20.0936 5.71554 20.5243 5.46086 20.9438C4.86161 21.9176 4.24738 22.9363 3.61816 24C3.63315 23.6854 3.69307 23.2809 3.79794 22.7865C3.88783 22.367 4.03764 21.8427 4.24738 21.2135C4.45712 20.5843 4.75674 19.8427 5.14625 18.9888C5.40094 18.4494 5.59569 18.03 5.73052 17.7303C5.86536 17.4307 5.97022 17.1985 6.04513 17.0337C6.12004 16.8539 6.17996 16.7341 6.22491 16.6742C6.15 16.5843 6.13502 16.4045 6.17996 16.1348C6.20992 15.8951 6.29607 15.5468 6.43839 15.0899C6.58071 14.633 6.82416 13.9925 7.16873 13.1685C7.5133 12.3296 7.96648 11.427 8.52828 10.4607C9.09007 9.49438 9.72303 8.53558 10.4272 7.58427C11.1313 6.63296 11.8953 5.71161 12.7193 4.82022C13.5433 3.92884 14.386 3.13858 15.2474 2.44944C16.1088 1.7603 16.9702 1.19476 17.8316 0.752809C18.6931 0.310861 19.5283 0.0599251 20.3373 0C20.3522 0.524345 20.2998 1.21723 20.18 2.07865C20.0601 2.94007 19.9103 3.86142 19.7305 4.8427C19.5507 5.82397 19.3485 6.82022 19.1238 7.83146C18.8991 8.8427 18.6818 9.7603 18.4721 10.5843L15.4609 12.2247Z" fill="white"/>
</g>
<defs>
<clipPath id="clip0_582_792">
<rect width="24" height="24" fill="white"/>
</clipPath>
</defs>
</svg>
