<svg width="974" height="148" viewBox="0 0 974 148" fill="none" xmlns="http://www.w3.org/2000/svg">
<g id="Frame 47">
<g id="Capsid Area 42" filter="url(#filter0_d_335_412)">
<path d="M122.047 23.5645C118.466 26.6243 115.276 29.5866 112.477 32.4512C110.784 34.1113 109.433 35.5273 108.424 36.6992C107.447 37.8385 106.536 38.9941 105.689 40.166C104.876 41.3379 104.192 42.4935 103.639 43.6328C103.118 44.7396 102.857 45.7324 102.857 46.6113C102.923 46.8717 102.988 47.1159 103.053 47.3438C103.118 47.5716 103.183 47.7995 103.248 48.0273C104.029 51.2174 104.111 54.7982 103.492 58.7695L103.443 59.1602H84.8398C85.1979 57.5 85.377 55.9375 85.377 54.4727C85.4095 53.0078 85.2142 51.8197 84.791 50.9082L122.047 23.5645ZM36.5488 86.4062L56.9102 71.4648C55.9661 75.1758 55.3965 78.3984 55.2012 81.1328C55.0384 83.8346 55.2337 85.9668 55.7871 87.5293C56.1126 88.4408 56.5684 89.1895 57.1543 89.7754C57.7728 90.3613 58.4564 90.8333 59.2051 91.1914C59.9538 91.5169 60.7676 91.7448 61.6465 91.875C62.5254 92.0052 63.4043 92.0703 64.2832 92.0703C64.5111 92.0703 64.7878 92.0703 65.1133 92.0703C65.4714 92.0378 65.7969 92.0215 66.0898 92.0215C66.4154 91.9889 66.6921 91.9727 66.9199 91.9727C67.1803 91.9401 67.3431 91.9238 67.4082 91.9238C68.1243 91.8587 69.0846 91.696 70.2891 91.4355C71.4935 91.1751 72.763 90.638 74.0977 89.8242C75.4648 88.9779 76.8158 87.7572 78.1504 86.1621C79.485 84.5671 80.6406 82.3861 81.6172 79.6191H84.1074C84.791 79.6191 85.4909 79.554 86.207 79.4238C86.8581 79.3262 87.5417 79.1797 88.2578 78.9844C89.0065 78.7891 89.7552 78.4798 90.5039 78.0566C91.2526 77.666 91.9688 77.2591 92.6523 76.8359C93.3685 76.4128 94.0033 76.0221 94.5566 75.6641C95.2077 75.2409 95.8099 74.834 96.3633 74.4434L53.8828 105.596C48.707 104.554 44.638 102.389 41.6758 99.1016C38.7461 95.8138 37.0371 91.582 36.5488 86.4062ZM57.9355 67.2656L24 92.2168C25.2044 91.1426 26.5228 89.7591 27.9551 88.0664C29.3548 86.3737 30.7057 84.5345 32.0078 82.5488C33.3424 80.5632 34.5632 78.5124 35.6699 76.3965C36.8092 74.248 37.6882 72.181 38.3066 70.1953L38.9414 67.6074C40.1133 62.7897 41.8874 58.2812 44.2637 54.082C46.64 49.8503 49.5208 46.1719 52.9062 43.0469C56.2917 39.8893 60.1491 37.4154 64.4785 35.625C68.8079 33.8021 73.5443 32.8906 78.6875 32.8906C80.3151 32.8906 81.959 32.972 83.6191 33.1348C85.2793 33.2975 86.8906 33.5905 88.4531 34.0137C90.0482 34.4368 91.5781 35.0065 93.043 35.7227C94.5404 36.4062 95.9401 37.2852 97.2422 38.3594L70.9238 57.6953C71.2819 57.3698 71.7702 56.9141 72.3887 56.3281C73.0397 55.7096 73.707 55.0423 74.3906 54.3262C75.1068 53.61 75.7904 52.8613 76.4414 52.0801C77.0924 51.2988 77.597 50.5827 77.9551 49.9316C78.3132 49.248 78.4759 48.6621 78.4434 48.1738C78.4434 47.6855 78.1178 47.36 77.4668 47.1973C77.1413 47.1647 76.7995 47.1484 76.4414 47.1484C76.1159 47.1159 75.7741 47.0996 75.416 47.0996C72.6816 47.0996 70.3379 47.7018 68.3848 48.9062C66.4642 50.0781 64.8366 51.6081 63.502 53.4961C62.1673 55.3841 61.0768 57.5 60.2305 59.8438C59.3841 62.1549 58.668 64.4336 58.082 66.6797L57.9355 67.2656ZM48.0234 113.457L106.031 70.8301C105.803 71.0579 105.38 71.5137 104.762 72.1973C104.176 72.8809 103.508 73.6458 102.76 74.4922C102.044 75.306 101.311 76.1523 100.562 77.0312C99.8464 77.8776 99.2767 78.61 98.8535 79.2285C98.6257 79.6191 98.3978 80.0423 98.1699 80.498C97.9746 80.9538 97.7793 81.3932 97.584 81.8164C96.4121 85.4948 94.7357 88.7663 92.5547 91.6309C90.4062 94.4954 87.8997 96.9531 85.0352 99.0039C82.1706 101.022 79.0293 102.633 75.6113 103.838C72.1934 105.01 68.6452 105.758 64.9668 106.084C63.0788 106.54 61.1419 107.174 59.1562 107.988C57.1706 108.802 55.3477 109.616 53.6875 110.43C51.7669 111.374 49.8789 112.383 48.0234 113.457Z" fill="#E82648"/>
<path d="M185.914 21.3184L121.51 68.6328C122.421 67.9818 123.333 67.2331 124.244 66.3867C125.156 65.5078 126.018 64.6452 126.832 63.7988C127.646 62.9199 128.362 62.1061 128.98 61.3574C129.632 60.6087 130.12 60.0065 130.445 59.5508L146.314 34.3066H146.363L146.412 34.209H153.102C155.901 34.209 158.798 33.8672 161.793 33.1836C164.82 32.5 167.555 31.4746 169.996 30.1074C171.721 29.196 173.447 28.2682 175.172 27.3242C176.93 26.3477 178.525 25.4525 179.957 24.6387C181.422 23.8249 182.675 23.125 183.717 22.5391C184.791 21.9531 185.523 21.5462 185.914 21.3184ZM169.215 76.7383C169.28 77.2591 169.378 77.7637 169.508 78.252C169.638 78.7077 169.833 79.1146 170.094 79.4727C170.354 79.8307 170.68 80.1237 171.07 80.3516C171.461 80.5469 171.949 80.6445 172.535 80.6445C173.284 80.6445 174.195 80.4492 175.27 80.0586C176.376 79.668 177.711 79.0007 179.273 78.0566L145.582 102.764C146.591 101.95 147.486 100.99 148.268 99.8828C149.081 98.7435 149.765 97.6367 150.318 96.5625C150.904 95.4883 151.376 94.528 151.734 93.6816C152.092 92.8353 152.337 92.2493 152.467 91.9238H129.078L121.656 104.961H101.93L112.721 87.7734C113.762 85.9831 114.348 84.6159 114.479 83.6719C114.641 82.6953 114.267 82.207 113.355 82.207C112.802 82.207 111.874 82.4674 110.572 82.9883C109.303 83.5091 107.952 84.1113 106.52 84.7949C105.087 85.446 103.736 86.1133 102.467 86.7969C101.165 87.4479 100.221 87.9199 99.6348 88.2129L123.561 70.5371L164.283 40.6543L169.166 76.2988L169.215 76.4941C169.215 76.6243 169.215 76.7057 169.215 76.7383ZM136.988 78.0566H151.295L149.635 55.8398L136.988 78.0566ZM170.729 87.7734L176.539 83.5254C175.953 84.1764 175.335 84.9089 174.684 85.7227C174.065 86.5365 173.495 87.3991 172.975 88.3105C172.486 89.222 172.096 90.1823 171.803 91.1914C171.542 92.168 171.477 93.1283 171.607 94.0723C171.64 94.235 171.656 94.4466 171.656 94.707L173.072 104.961H155.836C155.413 105.026 154.501 105.221 153.102 105.547C151.702 105.872 149.846 106.523 147.535 107.5C145.224 108.509 142.457 109.909 139.234 111.699C136.012 113.522 132.366 115.931 128.297 118.926L153.004 100.762V100.713L170.729 87.7246V87.7734Z" fill="#E82648"/>
<path d="M255.836 45.2441C257.366 49.0202 257.529 53.2845 256.324 58.0371C255.348 62.041 253.704 65.5078 251.393 68.4375C249.081 71.3346 246.331 73.7272 243.141 75.6152C239.983 77.5033 236.533 78.903 232.789 79.8145C229.046 80.6934 225.253 81.1328 221.412 81.1328H216.92C216.464 81.1328 215.927 81.1816 215.309 81.2793C214.69 81.377 214.104 81.5397 213.551 81.7676L186.744 101.396L194.508 69.9023C194.508 69.6094 194.378 69.235 194.117 68.7793C193.889 68.3236 193.336 68.0957 192.457 68.0957C192.066 68.0957 191.594 68.1771 191.041 68.3398C190.52 68.4701 189.885 68.6979 189.137 69.0234C187.672 69.707 186.288 70.3581 184.986 70.9766C183.717 71.5625 182.594 72.0833 181.617 72.5391C180.478 73.0599 179.436 73.5482 178.492 74.0039L233.668 33.4766C235.882 33.5091 238.111 33.7207 240.357 34.1113C242.604 34.502 244.719 35.153 246.705 36.0645C248.723 36.9759 250.53 38.1803 252.125 39.6777C253.72 41.1751 254.957 43.0306 255.836 45.2441ZM237.428 57.8906C238.209 54.7982 237.949 52.2917 236.646 50.3711C235.41 48.5482 233.261 47.6042 230.201 47.5391H218.727L213.941 67.0215H224.977C228.102 67.0215 230.755 66.2891 232.936 64.8242C235.149 63.3268 236.646 61.0156 237.428 57.8906ZM247.291 20L197.877 56.2793L203.541 33.4766H216.725C217.571 33.4115 218.548 33.2975 219.654 33.1348C220.794 32.9395 221.982 32.679 223.219 32.3535C224.488 32.028 225.79 31.6211 227.125 31.1328C228.492 30.6445 229.827 30.026 231.129 29.2773C233.115 28.2031 235.068 27.1289 236.988 26.0547C238.909 24.9479 240.634 23.9388 242.164 23.0273C243.954 21.9857 245.663 20.9766 247.291 20ZM167.115 119.268L208.521 88.8965L204.469 105.205H194.068C193.222 105.335 192.18 105.628 190.943 106.084C189.706 106.572 188.372 107.142 186.939 107.793C185.507 108.477 184.026 109.225 182.496 110.039C180.966 110.885 179.469 111.748 178.004 112.627C174.553 114.613 170.924 116.826 167.115 119.268Z" fill="#E82648"/>
<path d="M282.936 75.3711L259.742 92.4121C258.863 89.222 258.896 85.6901 259.84 81.8164L259.938 81.4746H265.357V81.4258C267.18 81.3932 269.068 81.1491 271.021 80.6934C272.844 80.3027 274.765 79.7168 276.783 78.9355C278.801 78.1217 280.852 76.9336 282.936 75.3711ZM279.176 71.9531C270.517 67.3307 267.197 60.9668 269.215 52.8613C270.094 49.2806 271.721 46.2207 274.098 43.6816C276.474 41.11 279.241 39.0104 282.398 37.3828C285.556 35.7552 288.925 34.5671 292.506 33.8184C296.119 33.0371 299.586 32.6465 302.906 32.6465C305.022 32.6465 307.171 32.8255 309.352 33.1836C311.533 33.5091 313.6 34.0788 315.553 34.8926C317.538 35.7064 319.329 36.8132 320.924 38.2129C322.519 39.5801 323.788 41.3053 324.732 43.3887C324.83 43.5514 324.911 43.7305 324.977 43.9258C325.042 44.0885 325.09 44.2513 325.123 44.4141L303.492 60.332C304.371 59.5508 305.055 58.7533 305.543 57.9395C306.064 57.1257 306.438 56.3281 306.666 55.5469L306.812 54.9609C307.529 52.2266 307.203 50.1432 305.836 48.7109C304.436 47.2135 302.255 46.4648 299.293 46.4648C298.186 46.4648 297.014 46.5951 295.777 46.8555C294.54 47.0833 293.368 47.474 292.262 48.0273C291.188 48.5482 290.243 49.248 289.43 50.127C288.616 50.9733 288.046 52.015 287.721 53.252C287.33 54.8796 287.883 56.3607 289.381 57.6953C291.041 59.1276 294.166 60.6087 298.756 62.1387C299.049 62.2363 299.309 62.334 299.537 62.4316C299.798 62.4967 300.042 62.5781 300.27 62.6758L284.352 74.3457C283.342 73.9551 282.415 73.5645 281.568 73.1738C280.722 72.7507 279.924 72.3438 279.176 71.9531ZM314.674 55.5469L336.305 39.6777C336.109 39.9056 335.67 40.3939 334.986 41.1426C334.335 41.8913 333.603 42.7376 332.789 43.6816C331.975 44.5931 331.161 45.5534 330.348 46.5625C329.534 47.5391 328.883 48.3691 328.395 49.0527C327.874 49.8014 327.418 50.5664 327.027 51.3477C326.669 52.0964 326.376 52.7799 326.148 53.3984C325.888 54.1146 325.676 54.8145 325.514 55.498H325.318V55.5469H314.674ZM310.133 67.2656C317.197 71.8229 319.736 78.0729 317.75 86.0156C316.839 89.7266 315.276 92.8841 313.062 95.4883C310.849 98.0599 308.245 100.143 305.25 101.738C302.288 103.333 299.065 104.489 295.582 105.205C292.099 105.921 288.616 106.279 285.133 106.279C283.44 106.279 281.666 106.165 279.811 105.938C277.955 105.742 276.116 105.4 274.293 104.912C272.47 104.424 270.729 103.773 269.068 102.959C267.408 102.145 265.911 101.152 264.576 99.9805C264.186 99.7852 263.697 99.6875 263.111 99.6875C262.265 99.6875 261.256 99.8665 260.084 100.225C258.912 100.55 257.659 101.006 256.324 101.592C255.022 102.145 253.655 102.78 252.223 103.496C250.79 104.212 249.407 104.961 248.072 105.742C244.882 107.5 241.546 109.502 238.062 111.748L278.492 82.1094C277.613 85.7878 277.906 88.457 279.371 90.1172C280.901 91.8424 283.88 92.7051 288.307 92.7051C289.479 92.7051 290.634 92.5911 291.773 92.3633C292.913 92.1029 293.971 91.7122 294.947 91.1914C295.956 90.6706 296.819 89.987 297.535 89.1406C298.284 88.2943 298.805 87.2526 299.098 86.0156C299.684 83.6719 299.293 81.849 297.926 80.5469C296.493 79.1797 293.678 77.7637 289.479 76.2988C288.762 76.071 288.079 75.8268 287.428 75.5664L303.346 63.8477C304.713 64.401 305.95 64.9707 307.057 65.5566C308.196 66.11 309.221 66.6797 310.133 67.2656Z" fill="#E82648"/>
<path d="M340.992 52.7637L376.637 26.5918C376.344 26.8848 375.693 27.6009 374.684 28.7402C373.674 29.8796 372.535 31.1816 371.266 32.6465C369.996 34.1113 368.727 35.6087 367.457 37.1387C366.188 38.6686 365.178 39.9707 364.43 41.0449C363.258 42.7051 362.346 44.349 361.695 45.9766C361.044 47.6042 360.589 48.89 360.328 49.834L354.469 73.418L322.291 97.0508C322.486 96.8555 322.958 96.3509 323.707 95.5371C324.456 94.6908 325.286 93.7305 326.197 92.6562C327.141 91.582 328.069 90.4915 328.98 89.3848C329.924 88.2454 330.673 87.2852 331.227 86.5039C332.04 85.3646 332.675 84.209 333.131 83.0371C333.619 81.8652 333.977 80.9375 334.205 80.2539L340.992 52.7637ZM353.443 77.6172V77.666L363.502 70.293C362.167 71.7253 360.898 73.1087 359.693 74.4434C358.977 75.2246 358.375 75.8919 357.887 76.4453C357.431 76.9987 356.975 77.5521 356.52 78.1055C356.064 78.6589 355.608 79.2122 355.152 79.7656C354.729 80.319 354.371 80.8073 354.078 81.2305C353.46 82.1094 352.939 83.0046 352.516 83.916C352.092 84.7949 351.751 85.6087 351.49 86.3574C351.165 87.2038 350.921 88.0176 350.758 88.7988H350.66L346.656 105.205H328.004L330.689 94.3652L353.443 77.6172ZM362.428 33.5742L328.98 58.1348C329.241 57.8418 329.876 57.1257 330.885 55.9863C331.926 54.847 333.082 53.5612 334.352 52.1289C335.621 50.6641 336.891 49.1667 338.16 47.6367C339.43 46.0742 340.455 44.7559 341.236 43.6816C342.018 42.5098 342.685 41.3379 343.238 40.166C343.824 38.9941 344.28 37.9199 344.605 36.9434C345.029 35.8366 345.37 34.7624 345.631 33.7207H345.68L345.729 33.5742H362.428Z" fill="#E82648"/>
<path d="M391.432 105.205L439.039 70.2441C438.811 70.5046 438.29 71.0905 437.477 72.002C436.695 72.8809 435.784 73.9388 434.742 75.1758C433.701 76.4128 432.61 77.7799 431.471 79.2773C430.331 80.7422 429.273 82.1908 428.297 83.623C426.311 86.8783 423.984 89.8242 421.314 92.4609C418.678 95.0651 415.781 97.3112 412.623 99.1992C409.465 101.055 406.096 102.503 402.516 103.545C398.967 104.587 395.273 105.14 391.432 105.205ZM396.363 59.7949L357.154 88.6035C357.838 88.0176 358.749 87.1875 359.889 86.1133C360.995 85.0065 362.232 83.7533 363.6 82.3535C364.934 80.9538 366.318 79.4238 367.75 77.7637C369.182 76.071 370.533 74.3457 371.803 72.5879C373.072 70.8301 374.179 69.056 375.123 67.2656C376.1 65.4753 376.783 63.75 377.174 62.0898L384.205 33.8672H408.131C411.419 33.8672 414.527 34.2741 417.457 35.0879C420.419 35.9017 423.023 37.041 425.27 38.5059L403.395 54.6191C403.72 54.2936 404.208 53.8216 404.859 53.2031C405.51 52.5521 406.129 51.8848 406.715 51.2012C407.301 50.5176 407.74 49.8828 408.033 49.2969C408.359 48.7109 408.342 48.3203 407.984 48.125C407.008 47.9297 405.966 47.832 404.859 47.832H399.293L396.363 59.7949ZM376.637 112.578C377.158 112.155 377.841 111.536 378.688 110.723C379.534 109.941 380.299 109.144 380.982 108.33C381.699 107.549 382.187 106.849 382.447 106.23C382.74 105.612 382.561 105.27 381.91 105.205H366.529L372.584 80.6934L395.338 63.9941L388.6 91.1914H394.117C397.112 91.1914 399.732 90.6217 401.979 89.4824C404.257 88.3431 406.21 86.8294 407.838 84.9414C409.498 83.0534 410.865 80.8887 411.939 78.4473C413.046 76.0059 413.909 73.4831 414.527 70.8789L415.26 67.8516C416.952 61.1458 416.887 56.1165 415.064 52.7637C414.609 51.9173 414.072 51.2174 413.453 50.6641L440.309 30.9863C438.388 32.8418 436.695 34.6159 435.23 36.3086C434.384 37.3177 433.717 38.1641 433.229 38.8477C432.74 39.4987 432.317 40.166 431.959 40.8496C431.633 41.5332 431.389 42.1842 431.227 42.8027C431.064 43.3887 431.064 43.9095 431.227 44.3652C432.431 46.123 433.375 48.1087 434.059 50.3223C435.751 55.5632 435.8 61.4225 434.205 67.9004L433.473 70.9277L376.637 112.578Z" fill="#E82648"/>
<path d="M569.996 21.3184L505.592 68.6328C506.503 67.9818 507.415 67.2331 508.326 66.3867C509.238 65.5078 510.1 64.6452 510.914 63.7988C511.728 62.9199 512.444 62.1061 513.062 61.3574C513.714 60.6087 514.202 60.0065 514.527 59.5508L530.396 34.3066H530.445L530.494 34.209H537.184C539.983 34.209 542.88 33.8672 545.875 33.1836C548.902 32.5 551.637 31.4746 554.078 30.1074C555.803 29.196 557.529 28.2682 559.254 27.3242C561.012 26.3477 562.607 25.4525 564.039 24.6387C565.504 23.8249 566.757 23.125 567.799 22.5391C568.873 21.9531 569.605 21.5462 569.996 21.3184ZM553.297 76.7383C553.362 77.2591 553.46 77.7637 553.59 78.252C553.72 78.7077 553.915 79.1146 554.176 79.4727C554.436 79.8307 554.762 80.1237 555.152 80.3516C555.543 80.5469 556.031 80.6445 556.617 80.6445C557.366 80.6445 558.277 80.4492 559.352 80.0586C560.458 79.668 561.793 79.0007 563.355 78.0566L529.664 102.764C530.673 101.95 531.568 100.99 532.35 99.8828C533.163 98.7435 533.847 97.6367 534.4 96.5625C534.986 95.4883 535.458 94.528 535.816 93.6816C536.174 92.8353 536.419 92.2493 536.549 91.9238H513.16L505.738 104.961H486.012L496.803 87.7734C497.844 85.9831 498.43 84.6159 498.561 83.6719C498.723 82.6953 498.349 82.207 497.438 82.207C496.884 82.207 495.956 82.4674 494.654 82.9883C493.385 83.5091 492.034 84.1113 490.602 84.7949C489.169 85.446 487.818 86.1133 486.549 86.7969C485.247 87.4479 484.303 87.9199 483.717 88.2129L507.643 70.5371L548.365 40.6543L553.248 76.2988L553.297 76.4941C553.297 76.6243 553.297 76.7057 553.297 76.7383ZM521.07 78.0566H535.377L533.717 55.8398L521.07 78.0566ZM554.811 87.7734L560.621 83.5254C560.035 84.1764 559.417 84.9089 558.766 85.7227C558.147 86.5365 557.577 87.3991 557.057 88.3105C556.568 89.222 556.178 90.1823 555.885 91.1914C555.624 92.168 555.559 93.1283 555.689 94.0723C555.722 94.235 555.738 94.4466 555.738 94.707L557.154 104.961H539.918C539.495 105.026 538.583 105.221 537.184 105.547C535.784 105.872 533.928 106.523 531.617 107.5C529.306 108.509 526.539 109.909 523.316 111.699C520.094 113.522 516.448 115.931 512.379 118.926L537.086 100.762V100.713L554.811 87.7246V87.7734Z" fill="#E82648"/>
<path d="M634.645 39.2383C638.779 43.0794 639.967 48.4993 638.209 55.498C636.972 60.5111 634.905 64.6452 632.008 67.9004C629.111 71.123 625.286 73.7435 620.533 75.7617L625.855 94.0723V94.0234L629.127 105.205H608.717L601.93 80.2539H593.043L590.797 89.2383C590.829 89.4336 590.911 89.6452 591.041 89.873C591.204 90.0684 591.529 90.166 592.018 90.166C592.408 90.166 592.945 90.0684 593.629 89.873C594.312 89.6452 595.208 89.2871 596.314 88.7988C596.282 88.7988 595.94 89.043 595.289 89.5312C594.638 89.987 593.792 90.6055 592.75 91.3867C591.708 92.168 590.504 93.0469 589.137 94.0234C587.802 95 586.435 95.9928 585.035 97.002C581.78 99.4108 578.069 102.145 573.902 105.205H568.189L576.539 71.3672C576.507 71.0742 576.36 70.7161 576.1 70.293C575.872 69.8372 575.335 69.6094 574.488 69.6094C574.098 69.6094 573.626 69.6745 573.072 69.8047C572.519 69.9349 571.868 70.1628 571.119 70.4883C569.654 71.1393 568.271 71.7741 566.969 72.3926C565.699 73.0111 564.576 73.5482 563.6 74.0039C562.493 74.5573 561.467 75.0944 560.523 75.6152L578.834 62.1875V62.1387L617.75 33.5742C619.215 33.6393 620.712 33.7695 622.242 33.9648C623.772 34.1602 625.27 34.4857 626.734 34.9414C628.199 35.3646 629.599 35.9342 630.934 36.6504C632.301 37.334 633.538 38.1966 634.645 39.2383ZM619.264 56.8164C619.98 53.8867 619.736 51.6243 618.531 50.0293C617.359 48.4017 615.178 47.5879 611.988 47.5879H601.148L596.559 66.1426H607.154C610.312 66.1426 612.916 65.3613 614.967 63.7988C617.05 62.2038 618.482 59.8763 619.264 56.8164ZM629.225 21.709L579.859 57.9395L585.914 33.5254H601.197C602.044 33.4277 603.004 33.2975 604.078 33.1348C605.185 32.9395 606.34 32.6953 607.545 32.4023C608.782 32.0768 610.035 31.6862 611.305 31.2305C612.607 30.7422 613.876 30.1725 615.113 29.5215C616.448 28.7728 617.783 28.0241 619.117 27.2754C620.484 26.5267 621.786 25.8105 623.023 25.127C624.26 24.4434 625.4 23.8086 626.441 23.2227C627.516 22.6367 628.443 22.1322 629.225 21.709ZM558.619 120L588.697 97.832L586.988 105.254C584.775 105.71 582.219 106.556 579.322 107.793C576.718 108.9 573.707 110.397 570.289 112.285C566.904 114.173 563.014 116.745 558.619 120Z" fill="#E82648"/>
<path d="M672.047 56.7188L649.342 73.418L659.059 34.0625H702.857L683.766 48.0762H674.195L672.047 56.7188ZM655.885 119.512L700.025 87.1875C699.505 87.7409 698.984 88.4082 698.463 89.1895C697.942 89.9707 697.454 90.8008 696.998 91.6797C696.542 92.526 696.135 93.3887 695.777 94.2676C695.419 95.1465 695.143 95.944 694.947 96.6602L692.75 105.449H680.982C680.331 105.514 679.469 105.758 678.395 106.182C677.32 106.605 676.132 107.142 674.83 107.793C673.528 108.477 672.161 109.225 670.729 110.039C669.296 110.885 667.88 111.748 666.48 112.627C663.16 114.678 659.628 116.973 655.885 119.512ZM630.787 90.5078L721.07 24.1504C719.28 26.0059 717.571 28.0078 715.943 30.1562C714.967 31.3932 714.153 32.5 713.502 33.4766C712.851 34.4206 712.2 35.4622 711.549 36.6016C710.898 37.7083 710.263 38.8802 709.645 40.1172C709.059 41.3542 708.538 42.6237 708.082 43.9258L707.057 48.0762H693.629C693.499 48.1087 693.401 48.125 693.336 48.125H693.287C692.831 48.125 692.229 48.2064 691.48 48.3691C690.764 48.4993 689.918 48.9551 688.941 49.7363C688.225 50.2572 687.184 51.0221 685.816 52.0312C684.482 53.0404 683.098 54.0983 681.666 55.2051C680.266 56.2793 678.964 57.2884 677.76 58.2324C676.588 59.1439 675.79 59.7786 675.367 60.1367C675.172 60.2669 674.96 60.4297 674.732 60.625C674.537 60.7878 674.358 60.9668 674.195 61.1621C674.065 61.3249 673.984 61.4876 673.951 61.6504C673.951 61.8132 674.065 61.9271 674.293 61.9922H698.463L695.143 75.5176H667.408L663.453 91.4355H689.527L658.326 114.287C658.587 114.059 658.993 113.685 659.547 113.164C660.133 112.643 660.735 112.057 661.354 111.406C662.005 110.788 662.639 110.137 663.258 109.453C663.876 108.77 664.381 108.135 664.771 107.549C665.162 106.995 665.374 106.523 665.406 106.133C665.439 105.742 665.211 105.514 664.723 105.449H641.383C642.262 101.901 643.043 98.7435 643.727 95.9766C644.15 94.2839 644.475 92.9492 644.703 91.9727C644.964 90.9635 645.191 90.0521 645.387 89.2383C645.582 88.4245 645.745 87.7409 645.875 87.1875C646.005 86.6341 646.087 86.3411 646.119 86.3086C646.217 85.8203 646.152 85.4785 645.924 85.2832C645.696 85.0553 645.338 84.9414 644.85 84.9414C644.361 84.9414 643.792 85.0228 643.141 85.1855C642.522 85.3483 641.839 85.5599 641.09 85.8203C640.341 86.0807 639.56 86.3737 638.746 86.6992C637.965 87.0247 637.184 87.3665 636.402 87.7246C634.612 88.5384 632.74 89.4661 630.787 90.5078Z" fill="#E82648"/>
<path d="M785.914 21.3184L721.51 68.6328C722.421 67.9818 723.333 67.2331 724.244 66.3867C725.156 65.5078 726.018 64.6452 726.832 63.7988C727.646 62.9199 728.362 62.1061 728.98 61.3574C729.632 60.6087 730.12 60.0065 730.445 59.5508L746.314 34.3066H746.363L746.412 34.209H753.102C755.901 34.209 758.798 33.8672 761.793 33.1836C764.82 32.5 767.555 31.4746 769.996 30.1074C771.721 29.196 773.447 28.2682 775.172 27.3242C776.93 26.3477 778.525 25.4525 779.957 24.6387C781.422 23.8249 782.675 23.125 783.717 22.5391C784.791 21.9531 785.523 21.5462 785.914 21.3184ZM769.215 76.7383C769.28 77.2591 769.378 77.7637 769.508 78.252C769.638 78.7077 769.833 79.1146 770.094 79.4727C770.354 79.8307 770.68 80.1237 771.07 80.3516C771.461 80.5469 771.949 80.6445 772.535 80.6445C773.284 80.6445 774.195 80.4492 775.27 80.0586C776.376 79.668 777.711 79.0007 779.273 78.0566L745.582 102.764C746.591 101.95 747.486 100.99 748.268 99.8828C749.081 98.7435 749.765 97.6367 750.318 96.5625C750.904 95.4883 751.376 94.528 751.734 93.6816C752.092 92.8353 752.337 92.2493 752.467 91.9238H729.078L721.656 104.961H701.93L712.721 87.7734C713.762 85.9831 714.348 84.6159 714.479 83.6719C714.641 82.6953 714.267 82.207 713.355 82.207C712.802 82.207 711.874 82.4674 710.572 82.9883C709.303 83.5091 707.952 84.1113 706.52 84.7949C705.087 85.446 703.736 86.1133 702.467 86.7969C701.165 87.4479 700.221 87.9199 699.635 88.2129L723.561 70.5371L764.283 40.6543L769.166 76.2988L769.215 76.4941C769.215 76.6243 769.215 76.7057 769.215 76.7383ZM736.988 78.0566H751.295L749.635 55.8398L736.988 78.0566ZM770.729 87.7734L776.539 83.5254C775.953 84.1764 775.335 84.9089 774.684 85.7227C774.065 86.5365 773.495 87.3991 772.975 88.3105C772.486 89.222 772.096 90.1823 771.803 91.1914C771.542 92.168 771.477 93.1283 771.607 94.0723C771.64 94.235 771.656 94.4466 771.656 94.707L773.072 104.961H755.836C755.413 105.026 754.501 105.221 753.102 105.547C751.702 105.872 749.846 106.523 747.535 107.5C745.224 108.509 742.457 109.909 739.234 111.699C736.012 113.522 732.366 115.931 728.297 118.926L753.004 100.762V100.713L770.729 87.7246V87.7734Z" fill="#E82648"/>
<path d="M822.73 65.3613L866.09 33.5254H868.922L861.549 63.2129L824.781 90.2148H808.521L810.084 79.5215L822.73 65.3613ZM845.094 57.0117L828.395 76.6406H840.26L845.094 57.0117ZM869.654 27.4707L831.715 55.3027L850.904 33.6719V33.5254H855.104C855.852 33.4928 856.878 33.3464 858.18 33.0859C859.482 32.8255 860.8 32.3372 862.135 31.6211C862.949 31.1654 863.762 30.7096 864.576 30.2539C865.39 29.7982 866.139 29.3913 866.822 29.0332C867.506 28.6426 868.092 28.3171 868.58 28.0566C869.101 27.7637 869.459 27.5684 869.654 27.4707ZM815.748 100.322L874.781 56.9629C872.633 58.623 870.549 60.446 868.531 62.4316C867.327 63.571 866.318 64.5964 865.504 65.5078C864.723 66.3867 863.909 67.3633 863.062 68.4375C862.249 69.4792 861.435 70.6022 860.621 71.8066C859.84 72.9785 859.14 74.1992 858.521 75.4688L858.229 76.6406H865.699L862.33 90.2148H854.859L851.148 105.205H833.18L835.963 94.0723C833.326 94.3327 830.836 94.7721 828.492 95.3906C826.148 96.0091 824.065 96.6764 822.242 97.3926C820.452 98.0762 818.971 98.7109 817.799 99.2969C816.66 99.8503 815.976 100.192 815.748 100.322Z" fill="#E82648"/>
<path d="M901.344 56.9141L901.295 57.2559H883.229L883.375 56.6699C884.286 53.0566 885.816 49.7689 887.965 46.8066C890.113 43.8444 892.652 41.3053 895.582 39.1895C898.512 37.0736 901.718 35.446 905.201 34.3066C908.717 33.1348 912.298 32.5488 915.943 32.5488C917.408 32.5488 918.987 32.6302 920.68 32.793C922.372 32.9557 924.033 33.265 925.66 33.7207C927.288 34.1764 928.818 34.8112 930.25 35.625C931.682 36.4062 932.903 37.4154 933.912 38.6523L908.277 57.5C908.57 57.2396 909.01 56.849 909.596 56.3281C910.214 55.8073 910.865 55.2214 911.549 54.5703C912.232 53.9193 912.916 53.2357 913.6 52.5195C914.283 51.8034 914.853 51.1035 915.309 50.4199C915.797 49.7363 916.139 49.1016 916.334 48.5156C916.529 47.9297 916.497 47.4577 916.236 47.0996C915.618 46.7415 914.999 46.4974 914.381 46.3672C913.762 46.237 913.095 46.1719 912.379 46.1719C910.914 46.1719 909.579 46.4974 908.375 47.1484C907.171 47.7669 906.096 48.597 905.152 49.6387C904.208 50.6478 903.411 51.8034 902.76 53.1055C902.109 54.375 901.637 55.6445 901.344 56.9141ZM917.945 53.7891L949.879 30.3516C949.586 30.612 948.837 31.3607 947.633 32.5977C946.428 33.8346 945.094 35.4134 943.629 37.334C942.197 39.2546 940.797 41.4518 939.43 43.9258C938.095 46.3997 937.135 48.9876 936.549 51.6895C936.061 53.7402 935.475 55.5957 934.791 57.2559C934.107 58.8835 933.31 60.4297 932.398 61.8945C931.487 63.3594 930.429 64.7754 929.225 66.1426C928.053 67.4772 926.734 68.8607 925.27 70.293C923.772 71.7578 921.852 73.4668 919.508 75.4199C917.197 77.3405 914.495 79.5215 911.402 81.9629L900.221 91.6797H914.674L884.059 114.092C884.319 113.864 884.71 113.506 885.23 113.018C885.784 112.529 886.37 111.976 886.988 111.357C887.607 110.739 888.209 110.104 888.795 109.453C889.413 108.802 889.918 108.184 890.309 107.598C890.732 107.044 891.008 106.54 891.139 106.084C891.269 105.661 891.171 105.384 890.846 105.254H872.877L875.709 93.8281L905.396 69.8535C906.373 69.0072 907.545 67.9492 908.912 66.6797C910.279 65.4102 911.598 64.0592 912.867 62.627C914.137 61.1621 915.243 59.681 916.188 58.1836C917.164 56.6536 917.75 55.1888 917.945 53.7891ZM929.518 84.2578C928.248 85.4622 927.158 86.569 926.246 87.5781C925.693 88.1966 925.27 88.7012 924.977 89.0918C924.684 89.4499 924.439 89.8079 924.244 90.166C924.049 90.4915 923.919 90.8008 923.854 91.0938C923.788 91.3542 923.854 91.5495 924.049 91.6797H928.541L925.172 105.254H900.807L929.518 84.2578Z" fill="#E82648"/>
</g>
</g>
<defs>
<filter id="filter0_d_335_412" x="0" y="0" width="973.879" height="148" filterUnits="userSpaceOnUse" color-interpolation-filters="sRGB">
<feFlood flood-opacity="0" result="BackgroundImageFix"/>
<feColorMatrix in="SourceAlpha" type="matrix" values="0 0 0 0 0 0 0 0 0 0 0 0 0 0 0 0 0 0 127 0" result="hardAlpha"/>
<feOffset dy="4"/>
<feGaussianBlur stdDeviation="12"/>
<feComposite in2="hardAlpha" operator="out"/>
<feColorMatrix type="matrix" values="0 0 0 0 0 0 0 0 0 0 0 0 0 0 0 0 0 0 0.3 0"/>
<feBlend mode="normal" in2="BackgroundImageFix" result="effect1_dropShadow_335_412"/>
<feBlend mode="normal" in="SourceGraphic" in2="effect1_dropShadow_335_412" result="shape"/>
</filter>
</defs>
</svg>
