<svg id="Layer_1" data-name="Layer 1" xmlns="http://www.w3.org/2000/svg" viewBox="0 0 1223 504"><defs><style>.cls-1{fill:#db2d4b;}</style></defs><path class="cls-1" d="M3.7,2.05c2.83-1,5.86-.49,8.78-.25q81.07,6.9,162.15,14c3.3.32,6.77.23,9.8,1.78,43,18.65,86.26,36.93,129.25,55.7-6-1.56-11.58-4.16-17.38-6.19-17-6.46-33.56-13.93-50.15-21.34C226,37.85,205.28,31.76,185.1,24.09c-5.21-1.78-10.8-1.71-16.22-2.27-24.41-2.33-48.93-3.53-73.23-7-16.72-2.31-33.47-4.48-50.24-6.41C34.28,7.26,23.54,4,12.52,2.23A26.31,26.31,0,0,0,6.38,2Z"/><path class="cls-1" d="M1044.92,33c10.25-.53,20.54-1.65,30.81-1l-.83.67-1.24.95c-16.13,1.1-31.1,7.69-46.28,12.67-15.88,6.44-31.3,14.06-47.6,19.44C970.49,68.5,961.87,73,953.08,77c-7.75,3.54-15.57,6.89-23.42,10.18-9.37,3.8-18.85,7.32-28.26,11-8.63,3.1-16.94,7.11-25.76,9.62-8,1.58-16.12,2.83-24.18,4.16l.18-.36c16.33-7.16,33-13.49,49.51-20.32Q973,62.16,1044.92,33Z"/><path class="cls-1" d="M125.19,38.72c7.74-1,15.52-1.72,23.29-2.43,20.38,1.16,40.36,5.56,60.29,9.67-20.72-.12-41.31-2.93-61.94-4.54C139.67,40.07,132.22,40.69,125.19,38.72Z"/><path class="cls-1" d="M807,129.79c33.45-27.3,66.66-54.92,100.15-82.17-4,5.09-8.39,9.86-12.84,14.54-10,8.41-20.95,15.68-31,24-11.51,9.83-22.83,19.88-34.47,29.56s-22.68,20.06-34.55,29.45c-1.81,1.72-4.33,1.65-6.63,1.84-21.53,4.5-43,9.36-64.23,15.13-6,1.87-12.26,4-16.93,8.37-5.65,5.11-11.62,9.86-17.25,15a31.14,31.14,0,0,1,8.46-2c-5.37,4.79-11.41,8.72-17.18,13-6.62,4.63-12.84,9.81-19.73,14.05,14.47-15.2,29.11-30.25,43.65-45.38,1.32-1.22,2.37-2.94,4.17-3.49q38.56-10.05,77.14-20.14C792.92,137.88,800,133.84,807,129.79Z"/><path class="cls-1" d="M1039.61,57.07c5.22-1.2,10.59-.27,15.84.32a24.42,24.42,0,0,1,8.29,2.59c-10.38,1.06-20.85.64-31.23,1.63a64.12,64.12,0,0,1-9.08.33C1028.33,59,1034.12,58.3,1039.61,57.07Z"/><path class="cls-1" d="M184.4,62.56c5.69-3.58,12.69-3.34,19.15-3.87,8.87,1,17.41,3.76,25.95,6.19C214.45,64.48,199.42,63.59,184.4,62.56Z"/><path class="cls-1" d="M355.56,69.32c11.71,11.35,25.08,20.93,36,33.06,5.1,6.61,11.74,11.84,16.85,18.44-5.55-2.31-10.47-5.8-15.76-8.6A118.78,118.78,0,0,1,371.87,98.3c4.62,1.64,9,3.79,13.57,5.69C375.67,92.27,365.4,81,355.56,69.32Z"/><path class="cls-1" d="M1.32,93.64c68.42,4.74,136.82,9.76,205.22,14.59,15,1.24,30.08,1.8,45,3.5l.32,1.09c-16.12-.39-32.21-2-48.35-1.66-6.67.09-13.34-.31-20-.24-26.72-.27-53.31-3.27-80-4.37-25.75-1.14-51.53-2.24-77.15-5.15C17.92,99.07,9.64,96.27,1.32,93.64Z"/><path class="cls-1" d="M253.24,113.39a3.66,3.66,0,0,1,1.68-1.4c20,.77,39.88,3.46,59.57,7C293.88,119.46,273.81,113.59,253.24,113.39Z"/><path class="cls-1" d="M1007.53,123.92c12.09-.22,24.15-1.1,36.25-1.07-11.33,1.57-22.57,3.72-33.81,5.81-3.89.45-7.75,1.05-11.63,1.53-31.47,2.5-62.83,6.28-94,11.6-4.71.73-9.45,1.6-14.24,1.17-.09-.56-.29-1.7-.39-2.26,8.86-2.74,17.9-4.77,26.91-6.94,14.52-3.51,29.13-6.79,44-8.85a18,18,0,0,1,5.47.3c.21-.42.61-1.27.81-1.69l-.46,1.67C980.13,124.85,993.81,124,1007.53,123.92Z"/><path class="cls-1" d="M622.65,166c3.31,1.51,6.71,2.84,10.07,4.26-5.11-.83-10.12.9-15.21.92a46.93,46.93,0,0,1-4.68,12.43c-.35-1.55-.69-3.1-1-4.65-3.18,6-5.75,12.33-8.86,18.36l-1.36,1.44c2.14-7.31,3-14.93,5.19-22.22a41,41,0,0,1,6.07-7.88c2.26-.49,4.46-.25,6.76-.35C620.62,167.54,621.63,166.76,622.65,166Z"/><path class="cls-1" d="M359.52,181.52c16.09-2.37,32.1-5.35,48.25-7.28,2.58.18,5.15.4,7.73.62-10.37,2.63-20.65,5.58-30.92,8.56-5.24,1.6-10.76,1.71-16.09,2.87-19.95,4-39.84,8.33-59.82,12.16-7.41,1.17-14.66,3.37-22.18,3.77-6.29.21-12.2,2.68-18.39,3.59a63.83,63.83,0,0,0,10.83,2.46c-12.83-.12-25.67,1.74-38.49.5a24.32,24.32,0,0,0-8.43.94c-25.67,4.29-51.64,6.34-77.54,8.74-28.1,2.82-56.11,6.5-84.09,10.36-4.85.54-9.76,1.37-14.62.6A74.39,74.39,0,0,1,65,227.68Z"/><path class="cls-1" d="M635.39,179l2.76-.33c2.22,3.19,4.84,6.1,6.81,9.47C640.92,186.11,638.38,182.19,635.39,179Z"/><path class="cls-1" d="M573.68,182.37a179.26,179.26,0,0,1,12.77,16.69c2.79,6.74,5.63,13.46,8.13,20.31l-2.38-.7c-1.45-1-2-2.72-2.83-4.2C584.22,203.73,578.81,193.12,573.68,182.37Z"/><path class="cls-1" d="M649.22,210.07c5.21-6.5,10.09-13.27,15.52-19.59-1.71,5.47-6.16,9.3-9.29,13.92-2.74,3.49-4.65,7.78-8.47,10.25-.13-.61-.39-1.85-.51-2.46A6.6,6.6,0,0,0,649.22,210.07Z"/><path class="cls-1" d="M607.79,196.15c.73-.55,1.46-1.1,2.2-1.64.16,2.44.37,4.88.7,7.31l0,.28c-.9,1.43-1.8,2.86-2.73,4.25C608,203,607.91,199.55,607.79,196.15Z"/><path class="cls-1" d="M447.52,205.13c4.15-3,8.13-6.6,13-8.43,5.32.08,10.58,1.47,15.9,2C467.09,202.06,457.07,202.6,447.52,205.13Z"/><path class="cls-1" d="M382.55,201.62c4.25-.16,8.51-.27,12.75-.81-12.31,5.66-24.64,11.33-36.52,17.88a58.37,58.37,0,0,1-9.46,4.47c-5.69,1-11.3,2.76-17.1,3,15.94-7.6,31.65-15.68,47.52-23.43A15.68,15.68,0,0,1,382.55,201.62Z"/><path class="cls-1" d="M423.66,228.17c16.45-8.25,34-14.12,51.85-18.52-5.83,4.7-12.23,8.9-19.41,11.2C445.42,223.85,434.48,225.78,423.66,228.17Z"/><path class="cls-1" d="M617.36,208.51c1.07,3.44,2.77,7,2.25,10.68-4.25,2.14-8.84,3.5-13.31,5.1-.59-1.08-1.15-2.17-1.69-3.26l.4-1.3.15-.3c4.12-.52,8.07-1.85,12.1-2.82C617.19,213.91,617.17,211.2,617.36,208.51Z"/><path class="cls-1" d="M636.43,213.8c2.83-1.92,6.58-1.79,9.8-2.76-2.77,2.39-5.55,4.77-8.47,7C636.71,216.83,635.36,215.43,636.43,213.8Z"/><path class="cls-1" d="M368.72,232.68c10.09-5.64,20-11.61,30.2-17.07a393.17,393.17,0,0,1-33.12,23.13,46.69,46.69,0,0,0-6.25,4.68c9-2.27,17-8,26.36-8.87-12.08,8-25.56,13.63-38.85,19.31a39.6,39.6,0,0,0-5.32,2.38c-5.79,3.14-12,5.49-17.72,8.69-8.68,4.72-17.37,9.42-26.23,13.78-19,9.25-36.83,20.73-55.7,30.25q-19.22,9.63-37.81,20.41a113.63,113.63,0,0,1-13.34,5.19,13.82,13.82,0,0,1,2.58-2Q281.15,282.69,368.72,232.68Z"/><path class="cls-1" d="M835.23,216.42c6.26.91,12.2,3.17,18.19,5.11,12.78,4.38,25.32,9.47,38.19,13.6-16.26-4.29-32.67-8.14-48.78-12.93A82.19,82.19,0,0,1,835.23,216.42Z"/><path class="cls-1" d="M879.54,218.62c4.62.71,9.36.63,13.91,1.85,10.13,2.55,20.24,5.16,30.37,7.69a48.91,48.91,0,0,0,11.52,2.21c3.36,1.3,6.64,3,10.3,3.32,22.19,2.94,44.54,4.25,66.81,6.47,28.51,2.45,56.93,5.78,85.39,8.68-7.85.28-15.61-1.08-23.44-1.07-40.29-2.27-80.63-4.2-121-6.22-5.05-1-10.25-.16-15.3-1Q908.84,229.63,879.54,218.62Z"/><path class="cls-1" d="M622.38,228.58c3.1-2.33,6-5,9.52-6.7-.65,1.63-1.34,3.25-2,4.86-4.29,2.71-8.6,5.72-13.64,6.76l1.82-1.48C619.5,230.88,621,229.74,622.38,228.58Z"/><path class="cls-1" d="M583.53,242.14c4.07-4.17,5.52-10.22,9.71-14.2a219.23,219.23,0,0,1-9.48,22.81,50,50,0,0,1-8,12c-2.49,2.58-.21,6.14.92,8.8a20.43,20.43,0,0,0-8.89-3.08,59.29,59.29,0,0,1-7.24,7.11c-2.84,2.22-6.22,3.58-9.08,5.77A255.12,255.12,0,0,1,529,296.87c-2.78,1.44-3.53,4.64-4.74,7.26-2.26,5.47-5.46,10.5-7.59,16l-1.45,0c2.09-7.23,4.51-14.36,6.52-21.61,4.77-3.51,9.8-6.63,14.67-10,11.5-8.14,21.27-18.42,32.53-26.86a24.8,24.8,0,0,0,6.26-6.5c2.6-4.55,6.23-8.36,9.35-12.54Z"/><path class="cls-1" d="M518.53,231.64l.75,0c-1.65,3.16-2.87,6.63-5.22,9.35-3.47,2.79-7.79,4.19-11.62,6.39-17.66,9.84-35,20.26-52.27,30.74-14.33,8.78-27.88,18.75-41.73,28.24,5.7-5.6,11.77-10.83,17.58-16.32a34,34,0,0,1,6.83-5.28C461.46,267.1,489.78,249,518.53,231.64Z"/><path class="cls-1" d="M552.85,239.26a38.6,38.6,0,0,1-.3,4.17c-.91,1.95-2.7,3.29-4.23,4.73-7.76,6.54-16.11,12.38-23.6,19.24a12.77,12.77,0,0,1-2.18,1.11C532.44,258.57,542.71,249,552.85,239.26Z"/><path class="cls-1" d="M655.7,248.7c3.18,1.26,4.62,4.37,6.43,7,4,1.72,8.06,3.53,12.17,5.1-2.77-.52-5.71-.58-8,1.23.71,3.21-2.62,4.94-4.07,7.29,3-.67,5.9-1.52,8.93-1.9-1.74,2.66-4.79,3.87-7.65,4.9a78.48,78.48,0,0,1-10,3.18c-2.69.28-4.62,2.31-6.83,3.63-.12-.37-.35-1.12-.47-1.49a11.77,11.77,0,0,1,2.27-3.27c4.75-4.73,9.74-9.22,14.61-13.82C660.31,256.78,658.28,252.57,655.7,248.7Z"/><path class="cls-1" d="M789.32,249.16c5,.42,8.62,4.26,12.75,6.72,14.72,10,30.36,18.5,46.14,26.64,3.66,1.83,7.76,2.39,11.74,3.18,20.82,4.15,41.79,7.5,62.57,11.85,2.19.46,4.48,1.07,6.12,2.71,3.69,3.37,7.28,6.88,11.3,9.88-4.07-1.81-8-4.06-12.52-4.59Q884,294.9,840.56,284.37a18.23,18.23,0,0,1-3.6-2.17C821.14,271.09,805,260.51,789.32,249.16Z"/><path class="cls-1" d="M713.41,253.39c9.49,4,19.56,7.05,28,13.26q21.25,13.5,41.8,28.07c14.7,10.42,30.67,19,44.65,30.44-29.21-18.07-58.23-36.47-87.36-54.69C731.47,264.75,722.29,259.3,713.41,253.39Z"/><path class="cls-1" d="M600.49,261.31c.93-.57,2.1-.33,3.15-.48,1.27,6.9,1.28,14,2.63,20.85,3.24,1.68,4.73-3.85,8.19-3.05C612.4,283.46,609,287.75,608,293c5.93-2.32,12.44-2.36,18.28-4.95l1.28.37c-6.36,3.78-12.66,7.83-19.63,10.41.7,1.73,2.46,3.47,1.43,5.45-3.27,8.68-6.83,17.36-11.88,25.17-.63,1.54-2.31,1.56-3.7,1.67.13-1,.41-3,.55-4,3.24-7.17,6.36-14.38,9.49-21.6.79-1.34.1-2.81-.15-4.18-3.18,2.73-5,6.57-7.29,10-7.46,11.94-17.36,22.06-25.59,33.43-8.32,11.19-18.37,20.93-28.35,30.61-2.54,2.21-4.08,5.75-7.17,7.16l-1.62.27a49.82,49.82,0,0,1-6-1.11c.17-.36.51-1.06.67-1.42q14.63-13.36,29.18-26.8c8.36-7.07,14.51-16.23,21.64-24.45,7.38-8.86,14.46-18,22.09-26.63l-1.14-4c.81-.94,2.89-1.37,2.38-3-.37-4,.21-8,.46-12C602.41,276,600.41,268.75,600.49,261.31Z"/><path class="cls-1" d="M585.51,290.7c3.94-8.38,6.86-17.28,11.81-25.15-.82,6.08-3.13,11.82-5.12,17.57C591.08,286.46,588,288.48,585.51,290.7Z"/><path class="cls-1" d="M571.38,304.35c3.89-4.43,8.54-8.1,12.86-12.08A123.44,123.44,0,0,1,571.38,304.35Z"/><path class="cls-1" d="M541.81,297.71c2.24.42,4.72,1.41,5.38,3.85,1.94,6.31,3.11,12.84,5,19.17,3.46-2.72,6.71-5.68,10.21-8.35-4.29,4.38-8.81,8.52-13.25,12.75-1.36-8.28-1.36-16.75-3.69-24.88-1.32-.57-2.66-2.2-4.17-.68Z"/><path class="cls-1" d="M524.68,317.87a17.16,17.16,0,0,1,5.94,6.12l-3.18-.64A49.28,49.28,0,0,1,524.68,317.87Z"/><path class="cls-1" d="M665.17,326.64c11.32,8.29,22.45,16.84,33.81,25.08,7.14,4.72,14.63,8.88,21.72,13.66a197.49,197.49,0,0,1-21.48-11.83c-4.23-3.08-8.35-6.32-12.81-9.06-6.24-4.63-12.22-9.65-19-13.58C666.71,329.47,666,328,665.17,326.64Z"/><path class="cls-1" d="M544.74,390.54c10.33-11.05,20.2-22.53,30.9-33.24-6.86,15.5-19.44,27.38-27.79,42,4.21-2.45,8.24-5.21,12.2-8.05,6.6-3.57,12.78-7.84,19.22-11.67-3.22,3.06-6.64,5.91-9.58,9.26-7.06,5.33-13.08,11.91-20.41,16.91,5,3.68,10.22,7.25,14.43,11.87-9.47-5.5-20-8.62-30-13.17C537.37,399.75,540.9,395,544.74,390.54Z"/><path class="cls-1" d="M696.07,393.9a14.13,14.13,0,0,1,5.95-2,22.67,22.67,0,0,1,2.6,3.46c-5.2,2.11-10.39,4.26-15.37,6.84C691.87,399.69,692.57,395.49,696.07,393.9Z"/><path class="cls-1" d="M735.43,396a91.87,91.87,0,0,1,25.76,15.24c-4.42,5.88-8.55,12-13.13,17.73-.56-3-.7-6.06-1.85-8.88C742.71,412.06,738.91,404.12,735.43,396Z"/><path class="cls-1" d="M612.48,421.57a68.76,68.76,0,0,0,12.66-.63c-.23,3.42-1.23,7-.07,10.36,2.47,3.84,6.6,6.65,7.64,11.33.76-.73,1.53-1.46,2.31-2.18.89,2.62.36,5.34-.31,7.95,2.47,4.7,4.79,9.51,7.62,14,.93,1.61,2.83,2.15,4.36,3,.16.71.34,1.44.53,2.17a5.31,5.31,0,0,0-5.09,5.72,158.52,158.52,0,0,1,.68,20.09c-2,2.87-4.4,7.82-8.63,6.73,1-6,3.33-11.78,3.8-17.9.39-5,1.52-9.94,1.52-15A90.18,90.18,0,0,0,632.9,452c-3.77-9.2-8-18.19-11.62-27.46C618.35,423.5,615.4,422.59,612.48,421.57Z"/><path class="cls-1" d="M643.58,433.67a50.31,50.31,0,0,1-.83-7.93l4.31.11c-.21,4.78-.43,9.57-.29,14.36C645.71,438,644.61,435.86,643.58,433.67Z"/></svg>