<svg width="122" height="24" viewBox="0 0 122 24" fill="none" xmlns="http://www.w3.org/2000/svg">
<g id="Frame 33">
<g id="logo">
<path id="Vector" d="M120.801 3.89117C120.522 3.14943 120.113 2.46381 119.595 1.86644C119.094 1.28931 118.481 0.821847 117.793 0.493031C117.111 0.165596 116.364 -0.00290374 115.607 3.78621e-05H105.4L104.286 4.40176H114.524C114.851 4.39671 115.175 4.46915 115.469 4.61325C115.753 4.75803 116.008 4.95506 116.221 5.1942C116.442 5.44086 116.614 5.72775 116.728 6.03944C116.845 6.36081 116.904 6.70068 116.903 7.04302V16.9035C116.906 17.2575 116.847 17.6093 116.728 17.9423C116.617 18.25 116.444 18.5316 116.221 18.7699C116.005 19.0004 115.75 19.191 115.469 19.3333C115.175 19.4774 114.851 19.5498 114.524 19.5448H105.4L104.286 23.9813H115.609C116.365 23.9844 117.112 23.8159 117.795 23.4883C118.482 23.1598 119.095 22.6923 119.596 22.1149C120.112 21.5223 120.52 20.8429 120.802 20.1078C121.093 19.3566 121.239 18.5348 121.239 17.6424V6.3389C121.245 5.50277 121.096 4.67288 120.801 3.89117V3.89117Z" fill="white"/>
<path id="Vector_2" d="M83.9816 11.2512C83.3626 10.581 82.6125 10.0472 81.7786 9.68308C80.9123 9.30458 79.977 9.11269 79.0327 9.11972H74.7311C74.0545 9.11972 73.5183 8.91421 73.1225 8.50319C72.7267 8.09218 72.5285 7.59333 72.5277 7.00664C72.5277 6.49083 72.6094 6.07994 72.7727 5.77398C72.9282 5.47675 73.1729 5.2365 73.472 5.08746C73.8028 4.9263 74.1571 4.81927 74.5214 4.7704C74.95 4.70975 75.3824 4.68036 75.8152 4.68244H83.8244V0H73.9965C73.0639 0 72.2129 0.187786 71.4436 0.56336C70.6961 0.922391 70.0295 1.43171 69.4848 2.05993C68.9384 2.69914 68.5119 3.43301 68.2261 4.22579C67.9243 5.03666 67.7699 5.89556 67.7703 6.76148C67.7703 8.00599 67.9568 9.0742 68.3298 9.96609C68.7028 10.858 69.2273 11.5857 69.9034 12.1492C70.5795 12.7127 71.4073 13.1235 72.3868 13.3818C73.3662 13.6401 74.4504 13.7693 75.6393 13.7693H78.4721C79.3584 13.7693 80.0987 14.0274 80.693 14.5437C81.2873 15.06 81.5846 15.7761 81.5849 16.692C81.5849 17.1849 81.4915 17.6075 81.3049 17.9599C81.1257 18.3027 80.8753 18.6027 80.5707 18.8395C80.2668 19.0743 79.8997 19.2504 79.4692 19.3677C79.03 19.4863 78.577 19.5456 78.1223 19.544H68.541V23.9805H79.3826C80.3618 23.9805 81.2481 23.7927 82.0414 23.4171C82.8235 23.0495 83.525 22.5288 84.1051 21.8854C84.6875 21.2398 85.1363 20.471 85.4516 19.5788C85.7668 18.6867 85.9242 17.724 85.9237 16.6909C85.9237 15.5878 85.7547 14.5725 85.4166 13.645C85.0786 12.7174 84.6002 11.9194 83.9816 11.2512Z" fill="white"/>
<path id="Vector_3" d="M61.9172 3.97965C61.596 3.20703 61.1333 2.50214 60.5532 1.90176C59.9691 1.30675 59.2738 0.834006 58.5074 0.510753C57.6997 0.167561 56.8309 -0.00617589 55.9542 0.000167652H44.9306L43.7786 4.19077H55.2553C56.2575 4.19077 56.9919 4.45491 57.4583 4.98321C57.9248 5.51152 58.158 6.19817 58.158 7.04315C58.158 7.93555 57.9248 8.62816 57.4583 9.12102C56.9919 9.61388 56.2575 9.86032 55.2553 9.86032H45.7415V23.9818H49.9376V14.0528H55.9542C56.8292 14.0597 57.6969 13.8923 58.5074 13.5602C59.2786 13.2458 59.9756 12.7718 60.5532 12.1688C61.1283 11.5646 61.5904 10.8608 61.9172 10.0913C62.2568 9.29627 62.4295 8.43907 62.4243 7.5736V6.51687C62.4286 5.64519 62.256 4.78182 61.9172 3.97965V3.97965Z" fill="white"/>
<path id="Vector_4" d="M0.436962 20.0898C0.716547 20.8315 1.12518 21.5172 1.6437 22.1145C2.14438 22.6917 2.75743 23.1591 3.44487 23.4879C4.12754 23.8154 4.87466 23.9839 5.63082 23.9809H15.3926L16.5442 19.5792H6.71526C6.38826 19.5843 6.06466 19.5118 5.7706 19.3677C5.48607 19.2231 5.23098 19.026 5.01853 18.7868C4.79759 18.5401 4.62548 18.2532 4.51145 17.9415C4.39431 17.6202 4.33514 17.2803 4.33672 16.938V7.07744C4.33318 6.72348 4.39235 6.37172 4.51145 6.03868C4.62286 5.73096 4.7954 5.44934 5.01853 5.21103C5.23471 4.98056 5.48923 4.78991 5.7706 4.64767C6.06469 4.50369 6.38829 4.43137 6.71526 4.43655H15.3941L16.5078 4.26874e-05H5.63082C4.87464 -0.00308248 4.12748 0.165426 3.44487 0.493036C2.75728 0.82159 2.14417 1.28909 1.6437 1.86645C1.12769 2.45908 0.719217 3.13847 0.436962 3.87359C0.146008 4.62473 0.000404578 5.44651 0.000151354 6.33891V17.6428C-0.00541653 18.4786 0.142681 19.3083 0.436962 20.0898V20.0898Z" fill="white"/>
<path id="Vector_5" d="M32.557 0H28.0104L21.8901 23.9816H22.6722L22.6673 24H31.3712L32.4727 19.7547H27.1296L27.8357 16.7627L30.1439 6.97259H30.3886L32.592 16.7627L33.3965 20.3192L34.2359 23.9816H38.4327L32.557 0Z" fill="white"/>
<path id="Vector_6" d="M95.7109 23.9954H91.2695L91.8594 22.7677C92.5218 21.4097 93.0292 20.2797 93.3814 19.3776C93.7336 18.4755 94.0236 17.4152 94.2512 16.1967C94.4791 14.979 94.5931 13.5328 94.5931 11.8581C94.5931 10.2959 94.4895 8.94735 94.2824 7.81247C94.0752 6.67759 93.8164 5.70576 93.506 4.89699C93.1953 4.08771 92.7501 3.07853 92.1705 1.86945C91.9841 1.53493 91.6839 0.91178 91.2699 0H95.7113C97.8637 3.75778 98.9399 7.70984 98.9399 11.8562C98.9399 14.1999 98.6604 16.3162 98.1012 18.205C97.5421 20.0938 96.7453 22.024 95.7109 23.9954Z" fill="#2590FF"/>
</g>
</g>
</svg>
