<svg width="120" height="120" viewBox="0 0 120 120" fill="none" xmlns="http://www.w3.org/2000/svg">
<g id="Frame">
<path id="Vector" d="M79.9091 41.7273C81.2727 40.0909 84 39.8182 85.6364 41.1818C87.2727 42.5455 87.5454 45.2727 86.1818 46.9091L58.9091 79.3636C57.5455 81 54.8182 81.2727 53.1818 79.9091L35.4545 65.1818C33.8182 63.8182 33.5455 61.0909 34.9091 59.4545C36.2727 57.8182 39 57.5455 40.6364 58.9091L55.3636 71.1818L79.9091 41.7273ZM60 120C26.7273 120 0 93.2727 0 60C0 26.7273 26.7273 0 60 0C93.2727 0 120 26.7273 120 60C120 93.2727 93.2727 120 60 120ZM60 114.545C90 114.545 114.545 90 114.545 60C114.545 30 90 5.45455 60 5.45455C30 5.45455 5.45455 30 5.45455 60C5.45455 90 30 114.545 60 114.545Z" fill="#39EA95"/>
</g>
</svg>
