<svg width="32" height="32" viewBox="0 0 32 32" fill="none" xmlns="http://www.w3.org/2000/svg">
<g id="icon/&#229;&#174;&#157;&#231;&#159;&#179;">
<path id="Vector 1" d="M14.2902 4L7.03627 8.85963L6.40596 9.73913M14.2902 4L20.9075 5.68447M14.2902 4L11 9.57143M11.8771 25.8236L6 10.3056L6.40596 9.73913M11.8771 25.8236L14.2902 28L18.6425 27.4037L19.7824 26.5093L20.9075 24.4134M11.8771 25.8236L14.2902 15.9851M21.6033 6.1764L26 14.9267L25.7119 15.4634M21.6033 6.1764L20.9075 5.68447M21.6033 6.1764L20.7002 6.51925M20.9075 5.68447L20.7002 6.51925M11 9.57143L6.40596 9.73913M11 9.57143L13.6388 10.3056M13.6388 10.3056L14.2902 15.9851M13.6388 10.3056L16.8333 8.71429M14.2902 15.9851L20.9075 24.4134M20.7002 6.51925L16.8333 8.71429M25.7119 15.4634L16.8333 8.71429M25.7119 15.4634L20.9075 24.4134" stroke="white" stroke-width="1.5" stroke-linejoin="round"/>
</g>
</svg>
