<svg width="32" height="32" viewBox="0 0 32 32" fill="none" xmlns="http://www.w3.org/2000/svg">
<g id="icon/&#230;&#141;&#162;&#232;&#163;&#133;">
<path id="Vector" d="M28.4386 10.1082L23.6906 5.3603C23.3075 4.97644 22.7618 4.77232 22.2197 4.81065C22.1738 4.80717 22.1273 4.80518 22.081 4.80518H19.5045L19.2867 4.92666C18.3758 5.43324 17.2111 5.7123 16.007 5.7123C14.8029 5.7123 13.6384 5.43324 12.7275 4.92666L12.5092 4.80518H9.92822C9.58821 4.80486 9.25434 4.89576 8.96142 5.0684C8.6685 5.24105 8.42726 5.48911 8.26285 5.78673L3.58784 10.4617C3.22987 10.82 3.03271 11.2957 3.03271 11.8018C3.03271 12.3078 3.22987 12.7838 3.58784 13.1418L7.01668 16.5706C7.28972 16.8449 7.64061 17.0283 8.02163 17.0961V25.2263C8.02163 26.2803 8.87896 27.1379 9.93295 27.1379H22.081C23.135 27.1379 23.9923 26.2803 23.9923 25.2263V16.7446C24.3779 16.6788 24.7334 16.4945 25.0092 16.2171L28.4391 12.7878C29.1774 12.0489 29.1771 10.8471 28.4386 10.1082ZM8.35669 15.189L4.96968 11.8018L9.68327 7.08816L9.86201 6.92785L9.94191 6.7297H12.0193C13.1806 7.32316 14.5582 7.63657 16.0067 7.63657C17.4553 7.63657 18.8331 7.32316 19.9944 6.7297H22.0725L22.2169 6.75036L22.3411 6.73243L27.0567 11.448L23.6692 14.8353L22.9105 14.1191C22.5916 13.8181 22.0673 14.0442 22.0673 14.4828V25.2129H9.9459V14.8735C9.9459 14.4392 9.43036 14.2114 9.10926 14.5038L8.35669 15.189Z" fill="white"/>
</g>
</svg>
