<svg width="40" height="40" viewBox="0 0 40 40" xmlns="http://www.w3.org/2000/svg">
<g id="icon">
<g id="Frame 3">
<path id="Vector" d="M5 29.652C8.21399 29.8854 11.0149 29.0787 13.5948 27.0336C12.2783 26.8703 11.1311 26.5153 10.163 25.7236C9.22078 24.9469 8.49795 23.9786 8.11072 22.6552H10.4986C10.5115 22.6002 10.5244 22.5452 10.5373 22.4769C9.22078 22.0819 8.09782 21.3719 7.25882 20.2402C6.41983 19.1235 6.0084 17.8268 5.96807 16.4068C6.80706 16.6535 7.60733 16.8985 8.42051 17.1301C8.44632 17.0751 8.48504 17.0218 8.51086 16.9668C7.34918 15.9568 6.51019 14.7434 6.20202 13.1751C5.88392 11.6454 6.10777 10.0486 6.83287 8.67498C10.0598 12.6567 14.1111 14.8668 19.0918 15.2351C18.9369 13.9384 18.924 12.7384 19.35 11.565C20.8215 7.45996 25.7763 6.14994 28.8596 9.09666C29.2081 9.42333 29.505 9.47833 29.8793 9.34166C30.899 8.95999 31.9042 8.55165 32.9497 8.14164C32.5496 9.49166 31.6848 10.4883 30.6667 11.4567C31.659 11.1834 32.6529 10.8967 33.6338 10.6233C33.6726 10.665 33.7113 10.6917 33.75 10.7334C33.0014 11.5517 32.2785 12.4117 31.467 13.1484C31.0281 13.5434 30.8861 13.9117 30.8603 14.5118C30.628 21.1952 28.0336 26.5953 22.5107 29.9937C16.8846 33.4438 11.0924 33.2387 5.38884 29.952C5.28558 29.8854 5.19523 29.802 5.00161 29.652H5Z" />
</g>
</g>
</svg>
