<svg width="32" height="32" viewBox="0 0 32 32" fill="none" xmlns="http://www.w3.org/2000/svg">
<g id="icon/&#233;&#146;&#177;&#229;&#140;&#133;">
<path id="Vector" d="M24.9226 4.89551H7.07761C5.36274 4.89551 3.97021 6.33178 3.97021 8.10052V23.8995C3.97021 25.6683 5.36274 27.1045 7.07761 27.1045H24.9226C26.6375 27.1045 28.03 25.6683 28.03 23.8995V8.10052C28.03 6.33178 26.6375 4.89551 24.9226 4.89551V4.89551ZM26.3151 18.5933H19.3783C17.9857 18.5933 16.8511 17.423 16.8511 15.9867C16.8511 14.5504 17.9857 13.3802 19.3783 13.3802H26.3151V18.5933ZM26.3151 23.8995C26.3151 24.6841 25.6962 25.3358 24.9226 25.3358H7.07761C6.31688 25.3358 5.68509 24.6974 5.68509 23.8995V8.10052C5.68509 7.30259 6.30399 6.66425 7.07761 6.66425H24.9226C25.6833 6.66425 26.3151 7.30259 26.3151 8.10052V11.6247H19.3783C17.0445 11.6247 15.1362 13.5929 15.1362 16C15.1362 18.4071 17.0445 20.3753 19.3783 20.3753H26.3151V23.8995ZM19.9843 16C19.9843 15.3617 20.4871 14.843 21.106 14.843C21.7249 14.843 22.2278 15.3617 22.2278 16C22.2278 16.6384 21.7249 17.157 21.106 17.157C20.4871 17.1437 19.9843 16.6384 19.9843 16Z" fill="white"/>
</g>
</svg>
